<?xml version="1.0" encoding="utf-8"?>
<!-- Generator: Adobe Illustrator 27.5.0, SVG Export Plug-In . SVG Version: 6.00 Build 0)  -->
<svg version="1.1" id="Layer_1" xmlns="http://www.w3.org/2000/svg" xmlns:xlink="http://www.w3.org/1999/xlink" x="0px" y="0px"
	 viewBox="0 0 325.75 338.999" style="enable-background:new 0 0 325.75 338.999;" xml:space="preserve">
<g>
	<g>
		<g>
			<path style="fill:#B01A1F;" d="M255.126,168.291c-1.286,0-2.328-1.042-2.328-2.328v-24.94c0-0.634,0.007-1.359,0.014-2.162
				c0.086-9.066,0.264-27.929-8.281-37.207c-4.07-4.418-9.119-6.771-14.603-6.806c-0.041,0-0.084,0-0.125,0
				c-7.993,0-16.726,4.774-25.265,13.815c-9.362,9.914-20.839,13.559-29.959,9.516c-2.177-0.966-4.088-2.323-5.706-4.017
				c-5.459,1.897-11.43,2.37-17.217,1.08c-12.864-2.868-20.544-13.543-20.544-28.552V40.61c0-12.933-7.851-18.824-15.145-18.824
				c-7.294,0-15.145,5.891-15.145,18.824v100.743c0,1.286-1.042,2.328-2.328,2.328c-1.286,0-2.328-1.042-2.328-2.328V40.61
				c0-11.668,6.802-23.48,19.8-23.48c12.999,0,19.8,11.811,19.8,23.48v46.08c0,12.862,6.161,21.613,16.901,24.009
				c4.076,0.908,8.75,0.771,13.281-0.508c-2.584-4.585-3.734-10.551-3.202-17.361c0.714-9.109,4.959-15.835,11.357-17.992
				c4.635-1.562,9.463-0.357,12.592,3.15c1.952,2.189,5.914,8.518,0.528,19.99c-2.879,6.133-7.804,11.026-13.69,14.15
				c0.891,0.722,1.87,1.324,2.932,1.795c7.26,3.224,16.72-0.02,24.687-8.456c9.439-9.995,19.343-15.274,28.649-15.274
				c0.051,0,0.102,0,0.153,0c6.808,0.043,13.032,2.916,17.999,8.308c9.793,10.632,9.603,30.741,9.511,40.404
				c-0.008,0.787-0.014,1.497-0.014,2.118v24.94C257.453,167.25,256.411,168.291,255.126,168.291z M178.101,78.827
				c-0.824,0-1.671,0.138-2.509,0.421c-4.573,1.542-7.64,6.755-8.203,13.944c-0.485,6.189,0.6,11.495,3,15.338
				c5.192-2.447,9.822-6.568,12.621-12.531c2.962-6.31,3.039-11.745,0.213-14.913C181.909,79.613,180.068,78.827,178.101,78.827z"/>
			<path style="fill:#5A0000;" d="M255.126,168.472c-1.383,0-2.508-1.125-2.508-2.508v-24.941c0-0.635,0.007-1.36,0.015-2.164
				c0.085-9.047,0.262-27.86-8.234-37.084c-4.034-4.38-9.039-6.714-14.471-6.748h-0.125c-7.941,0-16.632,4.757-25.133,13.758
				c-9.413,9.969-20.968,13.632-30.163,9.557c-2.138-0.948-4.05-2.285-5.683-3.974c-5.639,1.938-11.587,2.3-17.207,1.049
				c-12.952-2.888-20.684-13.628-20.684-28.728v-46.08c0-12.81-7.757-18.644-14.965-18.644c-7.207,0-14.964,5.834-14.964,18.644
				v100.743c0,1.383-1.125,2.508-2.508,2.508c-1.382,0-2.507-1.125-2.507-2.508V40.609c0-11.757,6.863-23.659,19.98-23.659
				c13.118,0,19.981,11.902,19.981,23.659v46.08c0,12.771,6.108,21.458,16.761,23.833c4.04,0.9,8.639,0.742,12.973-0.446
				c-2.558-4.649-3.633-10.612-3.113-17.262c0.719-9.184,5.011-15.968,11.479-18.149c4.707-1.586,9.607-0.359,12.784,3.201
				c1.977,2.215,5.988,8.616,0.556,20.187c-2.754,5.867-7.552,10.866-13.525,14.103c0.825,0.64,1.725,1.179,2.678,1.601
				c7.186,3.193,16.567-0.034,24.484-8.416c9.472-10.028,19.424-15.33,28.78-15.33h0.153c6.861,0.044,13.131,2.937,18.133,8.366
				c9.84,10.685,9.65,30.841,9.558,40.527l-0.003,0.235c-0.006,0.693-0.011,1.325-0.011,1.884v24.941
				C257.634,167.347,256.509,168.472,255.126,168.472z M229.803,94.667h0.126c5.536,0.036,10.631,2.409,14.736,6.864
				c8.591,9.329,8.414,28.238,8.329,37.325c-0.008,0.809-0.015,1.534-0.015,2.167v24.941c0,1.184,0.963,2.147,2.148,2.147
				c1.184,0,2.147-0.963,2.147-2.147v-24.941c0-0.56,0.006-1.192,0.012-1.887l0.002-0.233c0.091-9.642,0.281-29.702-9.463-40.281
				c-4.932-5.354-11.111-8.207-17.868-8.249h-0.152c-9.255,0-19.116,5.262-28.518,15.217c-8.024,8.496-17.565,11.753-24.891,8.497
				c-1.064-0.472-2.065-1.085-2.972-1.819c-0.047-0.038-0.071-0.097-0.066-0.157c0.006-0.06,0.041-0.113,0.095-0.142
				c6.019-3.196,10.853-8.192,13.612-14.068c5.339-11.377,1.429-17.633-0.5-19.795c-3.078-3.451-7.828-4.639-12.4-3.099
				c-6.327,2.133-10.527,8.8-11.235,17.836c-0.522,6.674,0.577,12.641,3.179,17.257c0.027,0.048,0.031,0.106,0.01,0.157
				c-0.021,0.051-0.064,0.09-0.117,0.104c-4.456,1.259-9.203,1.439-13.369,0.512c-10.83-2.416-17.042-11.231-17.042-24.185v-46.08
				c0-11.578-6.74-23.299-19.621-23.299c-12.88,0-19.62,11.721-19.62,23.299v100.743c0,1.184,0.963,2.147,2.147,2.147
				c1.185,0,2.148-0.963,2.148-2.147V40.609c0-13.057,7.943-19.005,15.325-19.005c7.381,0,15.325,5.948,15.325,19.005v46.08
				c0,14.919,7.627,25.527,20.403,28.376c5.592,1.247,11.512,0.874,17.119-1.074c0.066-0.025,0.14-0.006,0.189,0.046
				c1.618,1.694,3.518,3.032,5.649,3.977c9.046,4.01,20.45,0.38,29.755-9.476C212.979,99.464,221.76,94.667,229.803,94.667z
				 M170.39,108.711c-0.061,0-0.119-0.031-0.153-0.084c-2.464-3.944-3.51-9.286-3.027-15.448c0.569-7.264,3.681-12.535,8.325-14.101
				c0.846-0.286,1.709-0.431,2.566-0.431c2.056,0,3.923,0.824,5.257,2.32c2.877,3.224,2.81,8.731-0.185,15.109
				c-2.613,5.568-7.007,9.931-12.707,12.617C170.442,108.706,170.415,108.711,170.39,108.711z M178.102,79.008
				c-0.817,0-1.643,0.138-2.452,0.411c-4.502,1.519-7.523,6.673-8.081,13.788c-0.471,6.013,0.527,11.227,2.89,15.092
				c5.553-2.655,9.834-6.931,12.39-12.375c2.929-6.242,3.017-11.606,0.241-14.717C181.824,79.789,180.053,79.008,178.102,79.008z"/>
		</g>
		<path style="fill:#B01A1F;" d="M168.572,104.723c-0.003,0.051-0.008,0.101-0.017,0.151c-0.033,0.203-0.069,0.408-0.12,0.607
			c-0.06,0.233-0.185,0.459-0.306,0.659c-0.011,0.018-0.022,0.035-0.035,0.051c-0.104,0.135-0.225,0.274-0.344,0.396
			c-0.025,0.026-0.05,0.047-0.078,0.069c-0.108,0.084-0.346,0.265-0.525,0.34c-0.137,0.057-0.343,0.131-0.485,0.171
			c-0.01,0.003-0.02,0.006-0.031,0.008c-0.024,0.006-0.048,0.008-0.072,0.011c-0.094,0.011-0.398,0.051-0.58,0.036
			c-0.01-0.001-0.02-0.003-0.03-0.004c-0.147-0.02-0.378-0.064-0.521-0.102c-0.195-0.051-0.396-0.164-0.556-0.263
			c-0.284-0.175-0.54-0.469-0.717-0.771c0.481,1.436,1.061,2.79,1.757,4.035c0.092-0.018,0.178-0.051,0.273-0.06
			c0.726-0.063,1.437-0.247,2.127-0.477c0.501-0.191,0.986-0.421,1.447-0.695c0.008-0.007,0.011-0.018,0.02-0.024
			c0.121-0.098,0.257-0.173,0.388-0.255c0.006-0.005,0.012-0.009,0.017-0.014c-0.001-0.002-0.002-0.003-0.003-0.005
			c0.01-0.004,0.018-0.01,0.027-0.015c0.019-0.017,0.041-0.031,0.06-0.049c0.026-0.025,0.06-0.029,0.087-0.052
			c-0.724-1.17-1.311-2.488-1.786-3.91C168.572,104.616,168.576,104.67,168.572,104.723z"/>
		<path style="fill:#B01A1F;" d="M174.297,117.77c-0.019-0.03-0.035-0.06-0.048-0.094c-0.167-0.423-0.228-0.59-0.218-1.053
			c0.004-0.195,0.05-0.39,0.107-0.576c0.124-0.403,0.333-0.641,0.613-0.938c0.148-0.157,0.378-0.284,0.539-0.388
			c0.26-0.168,0.596-0.258,0.878-0.356c0.257-0.089,0.526-0.138,0.782-0.228c-0.137,0.048-0.273,0.097-0.41,0.145
			c0.152-0.072,0.309-0.122,0.469-0.153c-0.18-0.071-0.364-0.128-0.541-0.207c-1.033-0.457-1.983-1.044-2.854-1.74l-0.005,0.002
			c-0.729,0.304-1.437,0.658-2.169,0.951c-0.625,0.25-1.251,0.505-1.89,0.717c-0.207,0.137-0.427,0.243-0.655,0.329
			c1.614,1.684,3.516,3.035,5.685,3.997c0.001,0,0.002,0.001,0.004,0.001C174.473,118.045,174.368,117.882,174.297,117.77z"/>
		<path style="fill:#B01A1F;" d="M164.309,93.002c-0.015,0-0.031-0.001-0.046-0.001c-0.32-0.025-0.56-0.305-0.535-0.626
			c0.644-8.221,4.511-14.302,10.344-16.268c4.285-1.447,8.752-0.326,11.652,2.923c0.214,0.24,0.193,0.608-0.047,0.821
			c-0.24,0.214-0.607,0.193-0.821-0.047c-2.581-2.893-6.569-3.888-10.412-2.594c-5.377,1.812-8.949,7.515-9.555,15.256
			C164.864,92.77,164.609,93.002,164.309,93.002z"/>
		<path style="fill:#B01A1F;" d="M255.705,139.583c-0.001,0-0.004,0-0.005,0c-0.321-0.003-0.58-0.266-0.577-0.587
			c0.089-9.306,0.273-28.67-9.069-38.824c-4.704-5.112-10.594-7.836-17.03-7.878c-0.321-0.002-0.58-0.264-0.578-0.586
			c0.002-0.32,0.262-0.578,0.582-0.578c0.002,0,0.002,0,0.004,0c6.768,0.043,12.95,2.897,17.879,8.253
			c9.654,10.493,9.467,30.167,9.377,39.622C256.284,139.326,256.024,139.583,255.705,139.583z"/>
		<path style="fill:#B01A1F;" d="M132.721,59.273c-0.321,0-0.582-0.261-0.582-0.582V43.189c0-0.321,0.261-0.582,0.582-0.582
			c0.321,0,0.582,0.261,0.582,0.582v15.501C133.302,59.012,133.042,59.273,132.721,59.273z"/>
		<path style="fill:#5A0000;" d="M165.132,110.588c-0.083,0-0.156-0.057-0.176-0.141c-0.022-0.097,0.04-0.193,0.136-0.215
			c0.031-0.007,3.059-0.696,5.994-2.244c0.089-0.047,0.196-0.012,0.243,0.075c0.047,0.089,0.013,0.197-0.075,0.243
			c-2.98,1.571-6.053,2.27-6.084,2.277C165.159,110.586,165.145,110.588,165.132,110.588z"/>
		<path style="fill:#5A0000;" d="M168.179,114.575c-0.073,0-0.142-0.045-0.169-0.118c-0.034-0.093,0.013-0.197,0.106-0.231
			c0.033-0.012,3.353-1.242,6.218-2.743c0.088-0.046,0.198-0.012,0.243,0.076c0.046,0.088,0.012,0.197-0.076,0.243
			c-2.886,1.514-6.227,2.75-6.26,2.762C168.22,114.571,168.2,114.575,168.179,114.575z"/>
	</g>
	<g>
		<g>
			<g>
				<path style="fill:#FAD6BE;" d="M87.013,237.127c-0.409-3.92-1.479-7.717-2.594-11.485c-1.133-3.828-2.346-7.642-3.166-11.553
					c-0.403-1.923-0.719-3.872-0.859-5.832c-0.146-2.049-0.055-4.077,0.108-6.122c0.68-8.511,1.826-16.984,2.928-25.448
					c0.535-4.112,1.255-8.22,1.197-12.381c-0.033-2.372-0.205-5.028-1.445-7.116c-0.494-0.832-1.171-1.502-2.053-1.851
					c-0.462,0.12-0.883,0.381-1.187,0.812c-0.07,0.099-0.239,0.07-0.239-0.065c0.001-0.771,0.076-1.545,0.218-2.302
					c0.04-0.216,0.087-0.436,0.142-0.655c0.042-1.101,0.03-2.204-0.067-3.308c-0.171-1.937-0.563-4.043-1.7-5.668
					c-0.525-0.75-1.273-1.388-2.188-1.576c-1.006-0.206-1.911,0.086-2.732,0.675c-0.096,0.069-0.188,0.136-0.281,0.201
					c0.004-0.088,0.008-0.176,0.01-0.264c0.042-1.931-0.205-3.968-1.117-5.697c-0.418-0.792-1.038-1.526-1.837-1.951
					c-0.985-0.525-2.107-0.61-3.188-0.369c-2.23,0.497-4.36,2.191-5.258,4.301c-0.07,0.166-0.119,0.326-0.158,0.486
					c-0.097-0.242-0.206-0.479-0.333-0.707c-0.979-1.77-3.197-2.319-4.969-1.382c-1.217,0.644-2.031,1.796-2.779,2.912
					c-1.063,1.586-2.106,3.184-3.105,4.812c-0.965,1.573-1.844,3.201-2.853,4.745c-0.954,1.459-2.006,2.852-3.078,4.227
					c-2.176,2.792-4.409,5.541-6.13,8.648c-1.775,3.203-3.897,6.236-5.271,9.648c-1.4,3.478-2.031,7.206-2.714,10.875
					c-0.731,3.928-1.485,7.852-2.148,11.792c-0.357,2.122-0.691,4.257-0.983,6.4c-0.075-0.014-0.152-0.017-0.217-0.005
					c-0.319,0.06-0.541,0.318-0.603,0.621c-0.185,0.895-0.479,1.764-0.648,2.665c-0.166,0.883-0.313,1.769-0.442,2.658
					c-0.254,1.748-0.453,3.503-0.596,5.263c-0.285,3.517-0.344,7.054-0.147,10.577c0.391,7.02,1.779,14.008,4.366,20.556
					c1.302,3.295,2.895,6.48,4.785,9.477c0.237,0.377,0.48,0.749,0.725,1.119c-1.002,3.629-10.511,38.065-15.577,56.634
					c1.946,2.002,4.293,3.592,6.744,4.907c4.304,2.309,8.989,3.779,13.784,4.648c4.771,0.865,9.656,1.169,14.498,0.914
					c4.838-0.255,9.685-1.078,14.249-2.732c0.522-0.189,1.04-0.391,1.554-0.604l5.062-54.328c2.735-1.637,5.237-3.709,7.273-6.162
					c1.073-1.292,2.032-2.68,2.775-4.189c0.789-1.6,1.295-3.302,1.673-5.043C87.281,245.033,87.424,241.062,87.013,237.127z"/>
				<path style="fill:#FAD6BE;" d="M87.013,237.127c-0.409-3.92-1.479-7.717-2.594-11.485c-1.133-3.828-2.346-7.642-3.166-11.553
					c-0.403-1.923-0.719-3.872-0.859-5.832c-0.146-2.049-0.055-4.077,0.108-6.122c0.68-8.511,1.826-16.984,2.928-25.448
					c0.535-4.112,1.255-8.22,1.197-12.381c-0.033-2.372-0.205-5.028-1.445-7.116c-0.494-0.832-1.171-1.502-2.053-1.851
					c-0.462,0.12-0.883,0.381-1.187,0.812c-0.07,0.099-0.239,0.07-0.239-0.065c0.001-0.771,0.076-1.545,0.218-2.302
					c0.04-0.216,0.087-0.436,0.142-0.655c0.042-1.101,0.03-2.204-0.067-3.308c-0.171-1.937-0.563-4.043-1.7-5.668
					c-0.525-0.75-1.273-1.388-2.188-1.576c-1.006-0.206-1.911,0.086-2.732,0.675c-0.096,0.069-0.188,0.136-0.281,0.201
					c0.004-0.088,0.008-0.176,0.01-0.264c0.042-1.931-0.205-3.968-1.117-5.697c-0.418-0.792-1.038-1.526-1.837-1.951
					c-0.985-0.525-2.107-0.61-3.188-0.369c-2.23,0.497-4.36,2.191-5.258,4.301c-0.07,0.166-0.119,0.326-0.158,0.486
					c-0.097-0.242-0.206-0.479-0.333-0.707c-0.979-1.77-3.197-2.319-4.969-1.382c-1.217,0.644-2.031,1.796-2.779,2.912
					c-1.063,1.586-2.106,3.184-3.105,4.812c-0.965,1.573-1.844,3.201-2.853,4.745c-0.954,1.459-2.006,2.852-3.078,4.227
					c-2.176,2.792-4.409,5.541-6.13,8.648c-1.775,3.203-3.897,6.236-5.271,9.648c-1.4,3.478-2.031,7.206-2.714,10.875
					c-0.731,3.928-1.485,7.852-2.148,11.792c-0.357,2.122-0.691,4.257-0.983,6.4c-0.075-0.014-0.152-0.017-0.217-0.005
					c-0.319,0.06-0.541,0.318-0.603,0.621c-0.185,0.895-0.479,1.764-0.648,2.665c-0.166,0.883-0.313,1.769-0.442,2.658
					c-0.254,1.748-0.453,3.503-0.596,5.263c-0.285,3.517-0.344,7.054-0.147,10.577c0.391,7.02,1.779,14.008,4.366,20.556
					c1.302,3.295,2.895,6.48,4.785,9.477c0.237,0.377,0.48,0.749,0.725,1.119c-1.002,3.629-10.511,38.065-15.577,56.634
					c1.946,2.002,4.293,3.592,6.744,4.907c4.304,2.309,8.989,3.779,13.784,4.648c4.771,0.865,9.656,1.169,14.498,0.914
					c4.838-0.255,9.685-1.078,14.249-2.732c0.522-0.189,1.04-0.391,1.554-0.604l5.062-54.328c2.735-1.637,5.237-3.709,7.273-6.162
					c1.073-1.292,2.032-2.68,2.775-4.189c0.789-1.6,1.295-3.302,1.673-5.043C87.281,245.033,87.424,241.062,87.013,237.127z"/>
				<path style="fill:#FAD6BE;" d="M20.573,313.092c0.476-1.381,0.956-2.76,1.413-4.141c0.988-2.982,1.973-5.965,2.903-8.967
					c0.951-3.068,1.869-6.146,2.813-9.216c0.912-2.967,1.848-5.912,2.576-8.931c0.712-2.954,1.325-5.93,2.052-8.88
					c0.704-2.858,1.56-5.656,2.603-8.409c0.276-0.729,0.552-1.595,1.122-2.157c0.451-0.444,1.044-0.479,1.627-0.306
					c0.451,0.134,0.877,0.353,1.285,0.582c0.522,0.293,1.042,0.583,1.542,0.913c0.471,0.311,0.927,0.643,1.376,0.983
					c-2.043-2.685-3.924-5.492-5.591-8.422c-2.662-4.678-4.626-9.636-5.913-14.862c-2.654-10.775-2.403-21.93-1.488-32.91
					c0.888-10.664,1.455-21.613,5.345-31.705c1.964-5.095,4.853-9.756,7.856-14.294c2.493-3.767,5.276-7.431,7.376-11.438
					c1.61-3.072,3.081-6.227,5.003-9.124c0.943-1.421,2.331-3.497,4.08-4.356c-0.767-0.103-1.577,0.026-2.311,0.415
					c-1.217,0.644-2.031,1.796-2.779,2.912c-1.063,1.586-2.106,3.184-3.105,4.812c-0.965,1.573-1.844,3.201-2.853,4.745
					c-0.954,1.459-2.006,2.852-3.078,4.227c-2.176,2.792-4.409,5.541-6.13,8.648c-1.775,3.203-3.897,6.236-5.271,9.648
					c-1.4,3.478-2.031,7.206-2.714,10.875c-0.731,3.928-1.485,7.852-2.148,11.792c-0.357,2.122-0.691,4.257-0.983,6.4
					c-0.075-0.015-0.152-0.017-0.217-0.005c-0.319,0.06-0.541,0.318-0.603,0.621c-0.185,0.895-0.479,1.764-0.648,2.665
					c-0.166,0.883-0.313,1.769-0.442,2.658c-0.254,1.748-0.453,3.503-0.596,5.263c-0.284,3.517-0.344,7.054-0.147,10.577
					c0.391,7.02,1.779,14.008,4.366,20.556c1.302,3.295,2.895,6.48,4.785,9.477c0.237,0.377,0.48,0.749,0.725,1.119
					c-1.002,3.629-10.511,38.065-15.577,56.634C19.379,312.059,19.965,312.589,20.573,313.092z"/>
				<path style="opacity:0.69;fill:#FAD6BE;" d="M87.013,237.127c-0.409-3.92-1.479-7.717-2.594-11.485
					c-1.133-3.828-2.346-7.642-3.166-11.553c-0.403-1.923-0.719-3.872-0.859-5.832c-0.146-2.049-0.055-4.077,0.108-6.122
					c0.68-8.511,1.826-16.984,2.928-25.448c0.347-2.663,0.77-5.325,1.009-8.001c-0.397,1.429-0.857,2.842-1.347,4.24
					c-0.426,1.212-0.876,2.416-1.331,3.617c-0.508,1.341-1.057,2.666-1.534,4.019c-0.525,1.49-0.987,3.004-1.372,4.536
					c-0.162,0.647-0.287,1.305-0.463,1.949c-0.103,0.378-0.194,0.76-0.291,1.139c-0.192,0.746-0.82,3.702-2.147,2.716
					c-0.657-0.488-1.018-1.327-1.132-2.115c-0.137-0.946-0.066-1.918,0.045-2.863c0.238-2.024,0.732-4.001,1.143-5.994
					c0.252-1.223,0.422-2.464,0.643-3.693c0.295-1.644,0.608-3.285,0.896-4.93c0.577-3.304,1.023-6.621,1.425-9.95
					c0.229-1.898,0.462-3.797,0.74-5.689c0.023-0.632,0.091-1.263,0.207-1.883c0.04-0.216,0.087-0.436,0.142-0.655
					c0.042-1.101,0.03-2.204-0.067-3.308c-0.113-1.277-0.323-2.628-0.779-3.866c-0.118,2.971-0.728,5.94-1.393,8.822
					c-0.767,3.329-1.703,6.616-2.688,9.886c-0.698,2.318-1.405,4.624-2.018,6.965c-0.847,3.235-1.608,6.494-2.176,9.791
					c-0.221,1.282-0.396,2.548-0.465,3.847c-0.065,1.219-0.11,2.442-0.264,3.654c-0.2,1.582-0.576,3.66-2.053,4.587
					c-0.722,0.453-1.321-0.012-1.648-0.685c-0.528-1.087-0.667-2.379-0.791-3.566c-0.165-1.583-0.214-3.179-0.219-4.77
					c-0.004-1.432,0.03-2.865,0.114-4.294c0.088-1.488,0.345-2.923,0.632-4.389c1.293-6.591,3.233-13.032,4.613-19.603
					c0.313-1.491,0.611-2.981,0.963-4.463c0.353-1.483,0.716-2.963,1.027-4.455c0.282-1.355,0.532-2.739,0.674-4.13
					c-0.05,0.033-0.1,0.064-0.15,0.099c-0.096,0.069-0.188,0.136-0.281,0.201c0.004-0.088,0.008-0.176,0.01-0.264
					c0.042-1.931-0.205-3.968-1.117-5.697c-0.418-0.792-1.038-1.526-1.837-1.951c-0.186-0.099-0.378-0.178-0.573-0.246
					c0.156,0.25,0.3,0.506,0.432,0.764c0.797,1.562,1.271,3.307,1.454,5.049c0.295,2.81-0.225,5.726-0.923,8.44
					c-0.364,1.415-0.796,2.812-1.242,4.203c-0.458,1.428-0.889,2.859-1.308,4.299c-1.713,5.887-3.72,11.683-5.419,17.574
					c-0.42,1.456-0.828,2.917-1.194,4.388c-0.316,1.27-0.51,2.568-0.668,3.866c-0.311,2.555-0.464,5.14-1.005,7.661
					c-0.253,1.18-0.578,2.411-1.168,3.473c-0.369,0.665-0.982,1.37-1.826,1.172c-0.941-0.221-1.617-1.232-2.104-1.989
					c-0.588-0.913-1.055-1.9-1.383-2.936c-1.356-4.293-0.333-8.971,1.072-13.113c1.444-4.257,3.494-8.259,5.171-12.422
					c1.199-2.976,2.399-5.944,3.373-9.004c1.167-3.67,2.152-7.505,2.258-11.374c0.073-2.683-0.337-5.709-2.221-7.709
					c-0.489,0.556-0.891,1.176-1.173,1.837c-0.07,0.166-0.119,0.326-0.158,0.486c-0.097-0.242-0.206-0.479-0.333-0.707
					c-0.979-1.77-3.197-2.319-4.969-1.382c-1.03,0.545-1.771,1.455-2.428,2.398c0.452-0.468,0.961-0.913,1.553-1.185
					c0.554-0.254,1.143-0.309,1.711-0.065c0.768,0.329,1.175,1.075,1.341,1.861c0.186,0.881,0.137,1.799,0.048,2.689
					c-0.11,1.105-0.251,2.207-0.474,3.295c-0.575,2.81-1.601,5.506-2.788,8.109c-1.194,2.619-2.6,5.128-3.861,7.714
					c-2.588,5.303-5.37,10.54-7.188,16.174c-0.909,2.816-1.474,5.689-1.962,8.603c-0.482,2.878-0.949,5.777-1.897,8.546
					c-0.036,0.107-0.229,0.136-0.248,0c-0.322-2.316-0.339-4.664-0.334-6.998c0.009-4.498,0.21-9.093-0.757-13.518
					c-0.447-2.047-1.173-4.054-2.37-5.787c-0.369-0.533-0.784-1.025-1.231-1.483c-0.867,1.5-1.684,3.027-2.332,4.638
					c-1.4,3.478-2.031,7.206-2.714,10.875c-0.731,3.928-1.485,7.852-2.148,11.792c-0.357,2.122-0.691,4.257-0.983,6.4
					c-0.075-0.015-0.152-0.017-0.217-0.005c-0.319,0.06-0.541,0.318-0.603,0.621c-0.185,0.895-0.479,1.764-0.648,2.665
					c-0.166,0.883-0.313,1.769-0.442,2.658c-0.254,1.748-0.453,3.503-0.596,5.263c-0.284,3.517-0.344,7.054-0.147,10.577
					c0.391,7.02,1.779,14.008,4.366,20.556c1.302,3.295,2.895,6.48,4.785,9.477c0.237,0.377,0.48,0.749,0.725,1.119
					c-0.148,0.535-0.481,1.742-0.957,3.465c2.197,3.299,5.62,5.565,8.965,7.613c3.712,2.274,7.721,4.453,10.46,7.934
					c3.528,4.484,3.701,10.435,3.224,15.885c-0.281,3.213-0.812,6.396-1.256,9.589c-0.485,3.483-0.733,7-1.037,10.502
					c-0.353,4.056-0.705,8.118-1.19,12.163c0.413-0.014,0.827-0.026,1.24-0.048c4.838-0.255,9.685-1.078,14.249-2.732
					c0.522-0.189,1.04-0.391,1.554-0.604l5.062-54.328c2.735-1.637,5.237-3.709,7.273-6.162c1.073-1.292,2.032-2.68,2.775-4.189
					c0.789-1.6,1.295-3.302,1.673-5.043C87.281,245.033,87.424,241.062,87.013,237.127z M83.096,238.73
					c-0.386,3.623-1.317,7.11-2.926,10.264c-0.587,1.15-1.449,2.386-2.736,2.493c-0.778,0.065-1.528-0.318-2.142-0.801
					c-2.243-1.766-3.287-4.809-4.451-7.326c-1.46-3.157-2.879-6.346-4.84-9.233c-4.828-7.109-12.124-12.132-17.568-18.732
					c-1.82-2.206-4.48-5.919-2.941-8.846c0.625-1.189,1.848-1.973,3.133-2.362c1.665-0.504,3.45-0.432,5.169-0.597
					c3.134-0.3,6.302-0.387,9.43,0.031c6.908,0.924,13.12,4.514,15.924,11.091C82.275,222.042,83.943,230.795,83.096,238.73z"/>
				<path style="opacity:0.69;fill:#FAD6BE;" d="M87.013,237.127c-0.034-0.322-0.073-0.644-0.116-0.965
					c-0.23,3.103-0.678,6.203-1.533,9.195c-0.906,3.166-2.301,6.277-4.539,8.732c-2.823,3.097-6.739,4.446-10.833,4.811
					c-4.49,0.4-9.106-0.102-13.442,1.37c1.067,1.919,3.146,2.84,4.91,4.005c0.896,0.592,1.748,1.266,2.406,2.123
					c0.67,0.873,1.106,1.919,1.39,2.976c0.559,2.08,0.561,4.278,0.456,6.414c-0.121,2.438-0.363,4.853-0.687,7.271
					c-0.757,5.648-1.669,11.275-2.358,16.932c-0.29,2.382-0.483,4.773-0.771,7.155c-0.249,2.059-0.537,4.113-0.734,6.178
					c-0.2,2.094-0.325,4.207-0.198,6.309c0.03,0.492,0.074,0.988,0.138,1.482c2.38-0.444,4.727-1.062,7.003-1.887
					c0.522-0.189,1.04-0.391,1.554-0.604l5.062-54.328c2.735-1.637,5.237-3.709,7.273-6.162c1.073-1.292,2.032-2.68,2.775-4.189
					c0.789-1.6,1.295-3.302,1.673-5.043C87.281,245.033,87.424,241.062,87.013,237.127z"/>
				<path style="fill:#D27A57;" d="M87.396,237.087c-0.409-3.917-1.467-7.701-2.608-11.555c-0.187-0.632-0.377-1.264-0.566-1.896
					c-0.94-3.135-1.911-6.377-2.593-9.627c-0.448-2.134-0.726-4.025-0.851-5.781c-0.157-2.211-0.025-4.402,0.108-6.064
					c0.622-7.779,1.65-15.655,2.645-23.272l0.281-2.157c0.102-0.784,0.211-1.568,0.32-2.352c0.456-3.288,0.928-6.688,0.88-10.084
					c-0.036-2.544-0.242-5.19-1.499-7.307c-0.579-0.976-1.333-1.653-2.242-2.013l-0.117-0.046l-0.122,0.031
					c-0.346,0.089-0.658,0.244-0.925,0.455c0.03-0.521,0.094-1.046,0.191-1.566c0.041-0.221,0.087-0.434,0.137-0.631l0.011-0.079
					c0.047-1.208,0.024-2.306-0.068-3.356c-0.144-1.635-0.484-4.021-1.768-5.855c-0.651-0.93-1.512-1.545-2.427-1.733
					c-0.913-0.187-1.817-0.014-2.69,0.513c-0.01-2.135-0.401-3.949-1.166-5.4c-0.351-0.665-0.982-1.571-1.997-2.112
					c-1.017-0.542-2.211-0.682-3.453-0.405c-2.257,0.502-4.371,2.163-5.374,4.188c-1.087-1.863-3.458-2.504-5.44-1.455
					c-1.263,0.669-2.102,1.819-2.919,3.039c-1.235,1.844-2.225,3.377-3.113,4.825c-0.386,0.629-0.764,1.275-1.128,1.901
					c-0.549,0.94-1.116,1.913-1.719,2.835c-0.988,1.511-2.101,2.972-3.059,4.201l-0.661,0.845c-1.937,2.475-3.94,5.033-5.502,7.852
					c-0.556,1.004-1.159,2.011-1.742,2.985c-1.277,2.135-2.598,4.341-3.549,6.705c-1.315,3.266-1.963,6.772-2.59,10.162
					l-0.146,0.786c-0.147,0.79-0.295,1.579-0.443,2.369c-0.578,3.087-1.177,6.279-1.706,9.43c-0.374,2.223-0.682,4.219-0.941,6.091
					c-0.431,0.101-0.766,0.454-0.86,0.912c-0.084,0.406-0.194,0.818-0.3,1.217c-0.126,0.472-0.256,0.959-0.349,1.455
					c-0.164,0.874-0.314,1.774-0.444,2.674c-0.256,1.759-0.457,3.538-0.599,5.288c-0.291,3.596-0.341,7.172-0.148,10.629
					c0.411,7.383,1.889,14.34,4.392,20.676c1.334,3.376,2.955,6.586,4.817,9.541c0.208,0.33,0.419,0.656,0.633,0.98
					c-1.447,5.241-10.523,38.114-15.471,56.246c0.056,0.059,0.111,0.119,0.166,0.177c0.149,0.156,0.305,0.306,0.459,0.457
					c4.975-18.238,14.339-52.153,15.635-56.844l0.047-0.169l-0.097-0.146c-0.244-0.367-0.485-0.737-0.72-1.112
					c-1.838-2.915-3.437-6.082-4.753-9.413c-2.473-6.26-3.933-13.135-4.34-20.436c-0.191-3.422-0.141-6.963,0.147-10.524
					c0.14-1.733,0.34-3.496,0.593-5.239c0.129-0.889,0.277-1.778,0.439-2.643c0.088-0.468,0.214-0.941,0.336-1.398
					c0.109-0.409,0.222-0.833,0.31-1.26c0.028-0.133,0.12-0.287,0.298-0.321c0.007-0.001,0.034-0.003,0.072,0.005l0.401,0.079
					l0.055-0.405c0.266-1.956,0.587-4.046,0.981-6.388c0.529-3.145,1.126-6.333,1.704-9.416c0.148-0.79,0.296-1.58,0.443-2.37
					l0.146-0.787c0.62-3.353,1.261-6.821,2.547-10.015c0.929-2.308,2.234-4.489,3.496-6.598c0.586-0.979,1.192-1.991,1.754-3.007
					c1.532-2.766,3.516-5.3,5.435-7.751l0.662-0.847c0.968-1.242,2.093-2.718,3.096-4.253c0.614-0.938,1.186-1.919,1.74-2.868
					c0.363-0.622,0.738-1.264,1.12-1.887c0.883-1.439,1.867-2.964,3.096-4.799c0.76-1.135,1.534-2.202,2.639-2.786
					c1.636-0.866,3.591-0.326,4.452,1.228c0.114,0.205,0.216,0.422,0.312,0.664l0.449,1.126l0.283-1.179
					c0.039-0.161,0.082-0.296,0.138-0.426c0.834-1.959,2.838-3.597,4.988-4.076c1.06-0.236,2.071-0.121,2.923,0.333
					c0.657,0.35,1.253,0.986,1.678,1.791c0.76,1.441,1.121,3.295,1.073,5.509c-0.001,0.063-0.004,0.127-0.007,0.19l-0.035,0.85
					l0.922-0.656c0.809-0.58,1.603-0.781,2.429-0.611c0.72,0.148,1.413,0.652,1.951,1.42c1.178,1.683,1.495,3.934,1.632,5.481
					c0.089,1.006,0.111,2.059,0.068,3.219c-0.05,0.202-0.096,0.416-0.138,0.639c-0.147,0.788-0.223,1.586-0.224,2.372
					c0,0.223,0.141,0.418,0.351,0.485c0.219,0.07,0.455-0.01,0.588-0.197c0.212-0.3,0.498-0.51,0.85-0.626
					c0.694,0.308,1.281,0.859,1.745,1.64c1.165,1.962,1.357,4.488,1.391,6.925c0.047,3.337-0.421,6.708-0.873,9.967
					c-0.109,0.786-0.218,1.572-0.32,2.359l-0.281,2.157c-0.996,7.626-2.025,15.513-2.648,23.311
					c-0.135,1.689-0.269,3.918-0.108,6.18c0.127,1.791,0.41,3.715,0.866,5.884c0.689,3.282,1.665,6.54,2.609,9.69
					c0.189,0.631,0.378,1.262,0.565,1.894c1.131,3.819,2.178,7.565,2.581,11.416c0.423,4.056,0.233,7.978-0.565,11.656
					c-0.429,1.977-0.951,3.551-1.642,4.954c-0.677,1.374-1.568,2.719-2.725,4.113c-1.953,2.352-4.367,4.397-7.175,6.077l-0.167,0.1
					l-5.098,54.72c0.27-0.108,0.538-0.219,0.805-0.333l5.024-53.927c2.812-1.706,5.234-3.773,7.204-6.145
					c1.196-1.441,2.12-2.836,2.824-4.264c0.72-1.461,1.261-3.091,1.704-5.131C87.633,245.228,87.828,241.224,87.396,237.087z"/>
			</g>
			<g>
				<path style="fill:#FAD6BE;" d="M28.157,250.234c2.659,4.113,6.361,8.16,10.95,10.098c4.465,1.886,9.768,1.352,13.313-2.109
					c5.778-5.641,7.051-14.58,5.241-22.175c-2.12-8.897-8.491-15.662-15.165-21.527c-5.426-4.768-6.939-10.802-6.171-17.854
					c0.509-4.672,1.014-9.348,1.06-14.053c0.023-2.306-0.066-4.613-0.308-6.907c-0.184-1.742-0.394-3.542-1.219-5.116
					c-0.798-1.523-2.355-2.574-4.079-2.686c-3.163-0.206-4.429,2.515-5.02,5.173c-0.855,3.845-2.375,7.607-3.575,11.406
					c-3.292,10.42-6.858,20.406-6.483,31.519c0.24,7.126,1.931,14.101,4.718,20.651C23.304,241.085,25.383,245.943,28.157,250.234z"
					/>
				<path style="fill:#FAD6BE;" d="M33.949,255.178c-4.232-5.255-7.297-11.4-9.61-17.713c-2.875-7.846-4.681-16.172-4.62-24.554
					c0.017-2.274,0.15-4.567,0.514-6.814c0.379-2.34,0.962-4.642,1.63-6.915c1.351-4.593,3.014-9.072,4.097-13.743
					c0.563-2.431,1.038-4.881,1.452-7.342c0.269-1.598,0.499-3.208,0.815-4.798c0.399-2.005,1.095-4.032,2.539-5.353
					c-2.431,0.376-3.484,2.778-4.007,5.131c-0.855,3.845-2.375,7.607-3.575,11.406c-3.292,10.42-6.858,20.405-6.483,31.519
					c0.24,7.126,1.931,14.101,4.718,20.651c1.886,4.432,3.965,9.289,6.739,13.58c2.592,4.01,6.178,7.951,10.608,9.942
					C37.009,258.67,35.4,256.98,33.949,255.178z"/>
				<path style="fill:#FAD6BE;" d="M57.661,236.048c-2.12-8.897-8.491-15.662-15.165-21.527c-5.426-4.768-6.939-10.802-6.171-17.854
					c0.509-4.672,1.014-9.348,1.06-14.053c0.023-2.306-0.066-4.613-0.308-6.907c-0.184-1.742-0.394-3.542-1.219-5.116
					c-0.798-1.523-2.355-2.574-4.079-2.686c-1.493-0.097-2.563,0.458-3.34,1.351c0.961-0.401,1.988-0.313,2.799,0.589
					c1.134,1.262,1.402,3.049,1.563,4.671c0.962,9.726-3.1,19.167-2.253,28.894c0.183,2.102,0.593,4.177,1.381,6.139
					c0.687,1.709,1.634,3.303,2.738,4.774c2.213,2.951,5.013,5.396,7.743,7.851c2.866,2.577,5.688,5.194,7.864,8.401
					c2.472,3.641,4.222,7.8,4.845,12.17c0.568,3.982,0.156,7.958-1.337,11.699c-0.698,1.75-1.629,3.476-2.819,4.975
					c0.511-0.351,1-0.748,1.458-1.195C58.198,252.582,59.471,243.643,57.661,236.048z"/>
				<path style="fill:#D27A57;" d="M58.035,235.959c-2.203-9.246-8.963-16.172-15.285-21.727c-4.951-4.35-6.871-9.918-6.043-17.523
					c0.499-4.587,1.016-9.331,1.063-14.09c0.024-2.473-0.077-4.746-0.31-6.951c-0.168-1.589-0.376-3.566-1.261-5.255
					c-0.872-1.664-2.556-2.772-4.395-2.892c-2.753-0.176-4.574,1.663-5.421,5.474c-0.573,2.578-1.466,5.171-2.329,7.679
					c-0.416,1.209-0.847,2.459-1.237,3.695c-0.288,0.912-0.579,1.821-0.868,2.728c-3.074,9.623-5.977,18.713-5.633,28.92
					c0.233,6.939,1.831,13.933,4.749,20.789c1.848,4.343,3.944,9.266,6.77,13.638c2.085,3.226,5.467,7.412,10.026,9.729
					c-0.305-0.282-0.601-0.573-0.885-0.873c-0.359-0.379-0.701-0.776-1.032-1.182c-3.281-2.306-5.795-5.513-7.462-8.092
					c-2.791-4.317-4.872-9.207-6.708-13.521c-2.88-6.768-4.457-13.67-4.688-20.514c-0.339-10.073,2.544-19.101,5.597-28.66
					c0.29-0.907,0.58-1.817,0.869-2.73c0.388-1.226,0.816-2.472,1.231-3.676c0.87-2.528,1.77-5.142,2.353-7.762
					c0.73-3.281,2.143-4.882,4.316-4.882c0.099,0,0.2,0.003,0.303,0.01c1.572,0.102,3.014,1.053,3.763,2.48
					c0.817,1.558,1.008,3.375,1.178,4.978c0.23,2.176,0.33,4.421,0.306,6.863c-0.046,4.721-0.561,9.446-1.058,14.015
					c-0.846,7.769,1.215,13.717,6.3,18.185c6.231,5.475,12.891,12.291,15.045,21.327c0.552,2.317,0.789,4.513,0.781,6.572
					c0.02,0.181,0.044,0.362,0.06,0.544c0.144,1.611,0.153,3.236,0.012,4.848c-0.02,0.232-0.045,0.463-0.071,0.694
					c0.069-0.28,0.135-0.563,0.195-0.849C59.067,244.104,58.989,239.958,58.035,235.959z"/>
			</g>
			<path style="fill:#D27A57;" d="M46.007,189.401c0.683-4.4,1.919-8.643,3.689-12.726c1.629-3.76,3.597-7.359,5.504-10.983
				c1.19-2.262,2.362-4.54,3.409-6.873c1.822-4.394,3.305-9.032,3.523-13.771c0.063-1.362,0.051-2.845-0.301-4.208
				c0.003-0.003,0.005-0.005,0.007-0.008c-0.09-0.306-0.185-0.612-0.282-0.916c-0.003,0.013-0.008,0.027-0.011,0.04
				c-0.097-0.242-0.206-0.479-0.333-0.707c-0.313-0.565-0.753-1.004-1.263-1.312c0.077,0.17,0.151,0.341,0.222,0.513
				c0.236,0.568,0.463,1.154,0.594,1.757c0.279,1.29,0.199,2.571,0.039,3.852c0.066,5.092-1.679,10.156-3.585,14.797
				c-1.402,3.413-3.04,6.721-4.714,10.007c-1.62,3.179-3.358,6.328-4.656,9.657c-1.227,3.148-1.813,6.463-2.19,9.809
				c-0.326,2.892-0.456,5.808-0.33,8.716c0.012,0.05,0.025,0.1,0.037,0.151C45.384,194.585,45.608,191.976,46.007,189.401z"/>
			<path style="fill:#D27A57;" d="M60.925,196.08c0.281-4.066,1.1-8.089,2.061-12.043c1.083-4.456,2.395-8.851,3.63-13.266
				c1.259-4.499,2.309-9.063,3.438-13.596c0.77-3.093,1.747-6.141,2.461-9.247c0.073-0.438,0.143-0.877,0.209-1.317
				c0.099-0.657,0.199-1.316,0.273-1.978c0.047-0.643,0.086-1.287,0.11-1.932c-0.008-1.784-0.285-3.626-1.121-5.211
				c-0.277-0.525-0.646-1.023-1.094-1.424c0.23,0.294,0.441,0.603,0.625,0.932c0.711,1.272,0.97,2.735,0.818,4.179
				c-0.1,0.948-0.29,1.893-0.482,2.826c-0.17,0.83-0.365,1.655-0.571,2.477c-0.012,0.084-0.024,0.168-0.037,0.251
				c-0.224,1.511-0.488,3.015-0.783,4.514c-1.184,6.008-2.876,11.901-4.507,17.798c-1.607,5.808-3.169,11.645-4.216,17.585
				c-0.749,4.25-1.203,8.592-0.984,12.904c0.036,0.134,0.074,0.267,0.111,0.401C60.806,198.644,60.837,197.35,60.925,196.08z"/>
			<path style="fill:#D27A57;" d="M79.994,149.819c-0.086-0.975-0.231-1.993-0.497-2.97c0.002,0.025,0.005,0.051,0.007,0.076
				c0.279,3.834-0.111,7.678-0.75,11.459c-0.649,3.835-1.552,7.62-2.285,11.439c-0.755,3.93-1.651,7.832-2.405,11.762
				c-0.381,1.984-0.721,3.976-0.97,5.981c-0.247,1.998-0.318,4.015-0.278,6.028c0.02,0.987,0.066,1.972,0.129,2.956
				c0.014-0.672,0.034-1.344,0.07-2.016c0.728-13.41,5.763-26.168,6.922-39.492c0.012-0.132,0.023-0.264,0.033-0.397
				C80.098,153.039,80.136,151.43,79.994,149.819z"/>
			<path style="fill:#D27A57;" d="M44.165,200.462c0.793,0.18,1.607,0.249,2.42,0.271c0.42-0.038,0.839-0.075,1.259-0.105
				c3.145-0.225,6.309-0.287,9.46-0.153c3.333,0.142,6.728,0.303,10.016,0.929c1.926,0.167,3.844,0.425,5.726,0.866
				c0.616,0.144,1.226,0.312,1.829,0.5c-1.999-1.055-4.187-1.813-6.387-2.284c-2.996-0.641-6.067-0.834-9.12-0.984
				c-3.169-0.156-6.323-0.191-9.491,0.014c-1.681,0.109-3.354,0.272-5.022,0.508c-0.501,0.071-1,0.149-1.503,0.201
				C43.619,200.32,43.891,200.4,44.165,200.462z"/>
		</g>
		<g>
			<g>
				<path style="fill:#FAD6BE;" d="M94.376,237.127c0.409-3.92,1.479-7.717,2.594-11.485c1.133-3.828,2.346-7.642,3.167-11.553
					c0.403-1.923,0.719-3.872,0.858-5.832c0.146-2.049,0.055-4.077-0.108-6.122c-0.68-8.511-1.826-16.984-2.928-25.448
					c-0.535-4.112-1.255-8.22-1.197-12.381c0.033-2.372,0.205-5.028,1.445-7.116c0.494-0.832,1.171-1.502,2.053-1.851
					c0.462,0.12,0.883,0.381,1.187,0.812c0.07,0.099,0.239,0.07,0.239-0.065c-0.002-0.771-0.076-1.545-0.217-2.302
					c-0.041-0.216-0.087-0.436-0.142-0.655c-0.043-1.101-0.03-2.204,0.067-3.308c0.171-1.937,0.563-4.043,1.7-5.668
					c0.525-0.75,1.273-1.388,2.188-1.576c1.006-0.206,1.911,0.086,2.732,0.675c0.096,0.069,0.188,0.136,0.281,0.201
					c-0.004-0.088-0.008-0.176-0.01-0.264c-0.042-1.931,0.205-3.968,1.117-5.697c0.418-0.792,1.038-1.526,1.837-1.951
					c0.985-0.525,2.107-0.61,3.188-0.369c2.23,0.497,4.36,2.191,5.258,4.301c0.07,0.166,0.119,0.326,0.158,0.486
					c0.097-0.242,0.206-0.479,0.333-0.707c0.979-1.77,3.196-2.319,4.969-1.382c1.217,0.644,2.031,1.796,2.779,2.912
					c1.063,1.586,2.106,3.184,3.105,4.812c0.965,1.573,1.843,3.201,2.853,4.745c0.954,1.459,2.006,2.852,3.078,4.227
					c2.176,2.792,4.409,5.541,6.13,8.648c1.775,3.203,3.897,6.236,5.271,9.648c1.4,3.478,2.031,7.206,2.714,10.875
					c0.731,3.928,1.486,7.852,2.148,11.792c0.357,2.122,0.691,4.257,0.983,6.4c0.075-0.014,0.152-0.017,0.217-0.005
					c0.319,0.06,0.541,0.318,0.603,0.621c0.185,0.895,0.479,1.764,0.648,2.665c0.166,0.883,0.313,1.769,0.442,2.658
					c0.254,1.748,0.453,3.503,0.596,5.263c0.284,3.517,0.344,7.054,0.147,10.577c-0.391,7.02-1.779,14.008-4.366,20.556
					c-1.302,3.295-2.895,6.48-4.785,9.477c-0.238,0.377-0.48,0.749-0.725,1.119c1.002,3.629,10.511,38.065,15.577,56.634
					c-1.946,2.002-4.292,3.592-6.744,4.907c-4.304,2.309-8.989,3.779-13.784,4.648c-4.771,0.865-9.656,1.169-14.498,0.914
					c-4.838-0.255-9.685-1.078-14.249-2.732c-0.522-0.189-1.041-0.391-1.554-0.604l-5.062-54.328
					c-2.735-1.637-5.237-3.709-7.273-6.162c-1.073-1.292-2.032-2.68-2.775-4.189c-0.789-1.6-1.295-3.302-1.673-5.043
					C94.108,245.033,93.965,241.062,94.376,237.127z"/>
				<path style="fill:#FAD6BE;" d="M94.376,237.127c0.409-3.92,1.479-7.717,2.594-11.485c1.133-3.828,2.346-7.642,3.167-11.553
					c0.403-1.923,0.719-3.872,0.858-5.832c0.146-2.049,0.055-4.077-0.108-6.122c-0.68-8.511-1.826-16.984-2.928-25.448
					c-0.535-4.112-1.255-8.22-1.197-12.381c0.033-2.372,0.205-5.028,1.445-7.116c0.494-0.832,1.171-1.502,2.053-1.851
					c0.462,0.12,0.883,0.381,1.187,0.812c0.07,0.099,0.239,0.07,0.239-0.065c-0.002-0.771-0.076-1.545-0.217-2.302
					c-0.041-0.216-0.087-0.436-0.142-0.655c-0.043-1.101-0.03-2.204,0.067-3.308c0.171-1.937,0.563-4.043,1.7-5.668
					c0.525-0.75,1.273-1.388,2.188-1.576c1.006-0.206,1.911,0.086,2.732,0.675c0.096,0.069,0.188,0.136,0.281,0.201
					c-0.004-0.088-0.008-0.176-0.01-0.264c-0.042-1.931,0.205-3.968,1.117-5.697c0.418-0.792,1.038-1.526,1.837-1.951
					c0.985-0.525,2.107-0.61,3.188-0.369c2.23,0.497,4.36,2.191,5.258,4.301c0.07,0.166,0.119,0.326,0.158,0.486
					c0.097-0.242,0.206-0.479,0.333-0.707c0.979-1.77,3.196-2.319,4.969-1.382c1.217,0.644,2.031,1.796,2.779,2.912
					c1.063,1.586,2.106,3.184,3.105,4.812c0.965,1.573,1.843,3.201,2.853,4.745c0.954,1.459,2.006,2.852,3.078,4.227
					c2.176,2.792,4.409,5.541,6.13,8.648c1.775,3.203,3.897,6.236,5.271,9.648c1.4,3.478,2.031,7.206,2.714,10.875
					c0.731,3.928,1.486,7.852,2.148,11.792c0.357,2.122,0.691,4.257,0.983,6.4c0.075-0.014,0.152-0.017,0.217-0.005
					c0.319,0.06,0.541,0.318,0.603,0.621c0.185,0.895,0.479,1.764,0.648,2.665c0.166,0.883,0.313,1.769,0.442,2.658
					c0.254,1.748,0.453,3.503,0.596,5.263c0.284,3.517,0.344,7.054,0.147,10.577c-0.391,7.02-1.779,14.008-4.366,20.556
					c-1.302,3.295-2.895,6.48-4.785,9.477c-0.238,0.377-0.48,0.749-0.725,1.119c1.002,3.629,10.511,38.065,15.577,56.634
					c-1.946,2.002-4.292,3.592-6.744,4.907c-4.304,2.309-8.989,3.779-13.784,4.648c-4.771,0.865-9.656,1.169-14.498,0.914
					c-4.838-0.255-9.685-1.078-14.249-2.732c-0.522-0.189-1.041-0.391-1.554-0.604l-5.062-54.328
					c-2.735-1.637-5.237-3.709-7.273-6.162c-1.073-1.292-2.032-2.68-2.775-4.189c-0.789-1.6-1.295-3.302-1.673-5.043
					C94.108,245.033,93.965,241.062,94.376,237.127z"/>
				<path style="fill:#FAD6BE;" d="M160.815,313.092c-0.476-1.381-0.956-2.76-1.413-4.141c-0.988-2.982-1.973-5.965-2.903-8.967
					c-0.951-3.068-1.869-6.146-2.813-9.216c-0.912-2.967-1.848-5.912-2.576-8.931c-0.712-2.954-1.325-5.93-2.052-8.88
					c-0.704-2.858-1.56-5.656-2.603-8.409c-0.276-0.729-0.552-1.595-1.122-2.157c-0.451-0.444-1.044-0.479-1.627-0.306
					c-0.451,0.134-0.877,0.353-1.285,0.582c-0.522,0.293-1.042,0.583-1.542,0.913c-0.471,0.311-0.927,0.643-1.376,0.983
					c2.043-2.685,3.924-5.492,5.591-8.422c2.662-4.678,4.626-9.636,5.913-14.862c2.654-10.775,2.403-21.93,1.488-32.91
					c-0.888-10.664-1.455-21.613-5.346-31.705c-1.964-5.095-4.853-9.756-7.856-14.294c-2.493-3.767-5.276-7.431-7.376-11.438
					c-1.61-3.072-3.081-6.227-5.003-9.124c-0.943-1.421-2.331-3.497-4.08-4.356c0.767-0.103,1.577,0.026,2.311,0.415
					c1.217,0.644,2.031,1.796,2.779,2.912c1.063,1.586,2.106,3.184,3.105,4.812c0.965,1.573,1.843,3.201,2.853,4.745
					c0.954,1.459,2.006,2.852,3.078,4.227c2.176,2.792,4.409,5.541,6.13,8.648c1.775,3.203,3.897,6.236,5.271,9.648
					c1.4,3.478,2.031,7.206,2.714,10.875c0.731,3.928,1.486,7.852,2.148,11.792c0.357,2.122,0.691,4.257,0.982,6.4
					c0.075-0.015,0.152-0.017,0.217-0.005c0.319,0.06,0.541,0.318,0.603,0.621c0.185,0.895,0.479,1.764,0.648,2.665
					c0.166,0.883,0.313,1.769,0.442,2.658c0.254,1.748,0.453,3.503,0.596,5.263c0.284,3.517,0.344,7.054,0.147,10.577
					c-0.391,7.02-1.779,14.008-4.366,20.556c-1.302,3.295-2.895,6.48-4.785,9.477c-0.238,0.377-0.48,0.749-0.725,1.119
					c1.002,3.629,10.511,38.065,15.577,56.634C162.009,312.059,161.423,312.589,160.815,313.092z"/>
				<path style="opacity:0.69;fill:#FAD6BE;" d="M94.948,248.905c0.378,1.74,0.884,3.442,1.673,5.043
					c0.743,1.508,1.702,2.897,2.775,4.189c2.036,2.452,4.538,4.525,7.273,6.162l5.062,54.328c0.514,0.213,1.032,0.414,1.554,0.604
					c4.564,1.654,9.411,2.477,14.249,2.732c0.413,0.022,0.826,0.034,1.24,0.048c-0.485-4.044-0.837-8.107-1.19-12.163
					c-0.305-3.502-0.553-7.02-1.038-10.502c-0.445-3.193-0.975-6.375-1.256-9.589c-0.477-5.451-0.304-11.401,3.224-15.885
					c2.74-3.481,6.748-5.66,10.46-7.934c3.345-2.048,6.768-4.314,8.965-7.613c-0.475-1.723-0.809-2.93-0.957-3.465
					c0.246-0.37,0.488-0.742,0.725-1.119c1.89-2.998,3.483-6.182,4.785-9.477c2.587-6.548,3.975-13.535,4.366-20.556
					c0.196-3.523,0.137-7.06-0.147-10.577c-0.142-1.76-0.342-3.516-0.596-5.263c-0.129-0.889-0.276-1.775-0.442-2.658
					c-0.169-0.901-0.463-1.771-0.648-2.665c-0.063-0.304-0.284-0.562-0.603-0.621c-0.065-0.012-0.142-0.01-0.217,0.005
					c-0.291-2.143-0.626-4.278-0.982-6.4c-0.662-3.94-1.417-7.864-2.148-11.792c-0.683-3.669-1.314-7.396-2.714-10.875
					c-0.649-1.611-1.465-3.138-2.333-4.638c-0.447,0.458-0.862,0.949-1.23,1.483c-1.197,1.733-1.923,3.74-2.37,5.787
					c-0.966,4.424-0.765,9.02-0.757,13.518c0.005,2.334-0.012,4.682-0.334,6.998c-0.019,0.136-0.211,0.107-0.248,0
					c-0.948-2.769-1.415-5.668-1.897-8.546c-0.488-2.914-1.053-5.787-1.962-8.603c-1.818-5.634-4.6-10.871-7.188-16.174
					c-1.261-2.585-2.667-5.094-3.861-7.714c-1.187-2.603-2.213-5.3-2.788-8.109c-0.223-1.088-0.364-2.191-0.474-3.295
					c-0.088-0.889-0.137-1.808,0.048-2.689c0.166-0.787,0.572-1.532,1.341-1.861c0.568-0.243,1.157-0.189,1.711,0.065
					c0.592,0.272,1.102,0.716,1.554,1.185c-0.657-0.944-1.398-1.853-2.428-2.398c-1.772-0.938-3.989-0.388-4.969,1.382
					c-0.126,0.229-0.236,0.465-0.333,0.707c-0.039-0.161-0.087-0.321-0.158-0.486c-0.282-0.661-0.684-1.282-1.173-1.837
					c-1.883,2-2.294,5.026-2.221,7.709c0.106,3.869,1.09,7.704,2.258,11.374c0.973,3.061,2.174,6.028,3.373,9.004
					c1.677,4.163,3.728,8.165,5.171,12.422c1.405,4.142,2.428,8.82,1.072,13.113c-0.327,1.036-0.794,2.023-1.383,2.936
					c-0.487,0.756-1.163,1.767-2.104,1.989c-0.844,0.198-1.457-0.507-1.826-1.172c-0.59-1.062-0.914-2.293-1.168-3.473
					c-0.542-2.521-0.694-5.106-1.005-7.661c-0.158-1.298-0.352-2.596-0.668-3.866c-0.366-1.471-0.774-2.932-1.194-4.388
					c-1.7-5.891-3.707-11.687-5.419-17.574c-0.419-1.44-0.85-2.871-1.308-4.299c-0.446-1.391-0.878-2.788-1.242-4.203
					c-0.697-2.714-1.217-5.63-0.922-8.44c0.183-1.741,0.657-3.487,1.453-5.049c0.131-0.258,0.276-0.514,0.432-0.764
					c-0.195,0.069-0.387,0.147-0.573,0.246c-0.799,0.425-1.42,1.16-1.837,1.951c-0.912,1.729-1.16,3.766-1.117,5.697
					c0.002,0.088,0.007,0.176,0.01,0.264c-0.092-0.065-0.184-0.132-0.281-0.201c-0.049-0.035-0.1-0.066-0.15-0.099
					c0.142,1.392,0.392,2.776,0.674,4.13c0.311,1.492,0.674,2.973,1.027,4.455c0.353,1.482,0.65,2.972,0.963,4.463
					c1.38,6.571,3.321,13.012,4.613,19.603c0.287,1.466,0.545,2.901,0.632,4.389c0.084,1.429,0.118,2.862,0.114,4.294
					c-0.005,1.591-0.054,3.186-0.219,4.77c-0.124,1.187-0.263,2.479-0.791,3.566c-0.327,0.673-0.927,1.138-1.648,0.685
					c-1.477-0.927-1.853-3.005-2.053-4.587c-0.153-1.213-0.199-2.435-0.264-3.654c-0.069-1.299-0.244-2.565-0.465-3.847
					c-0.567-3.297-1.329-6.556-2.176-9.791c-0.613-2.342-1.319-4.648-2.018-6.965c-0.985-3.27-1.921-6.557-2.688-9.886
					c-0.664-2.882-1.275-5.851-1.393-8.822c-0.455,1.238-0.666,2.588-0.778,3.866c-0.098,1.104-0.11,2.207-0.067,3.308
					c0.055,0.219,0.102,0.438,0.142,0.655c0.116,0.62,0.184,1.252,0.207,1.883c0.279,1.892,0.511,3.791,0.74,5.689
					c0.402,3.329,0.847,6.646,1.424,9.95c0.287,1.645,0.601,3.286,0.896,4.93c0.221,1.229,0.391,2.47,0.643,3.693
					c0.41,1.993,0.905,3.97,1.143,5.994c0.111,0.945,0.182,1.917,0.045,2.863c-0.114,0.788-0.475,1.627-1.132,2.115
					c-1.327,0.986-1.956-1.97-2.147-2.716c-0.098-0.38-0.188-0.761-0.291-1.139c-0.176-0.644-0.3-1.301-0.463-1.949
					c-0.385-1.533-0.847-3.046-1.372-4.536c-0.477-1.353-1.026-2.678-1.533-4.019c-0.455-1.202-0.906-2.405-1.331-3.617
					c-0.491-1.398-0.95-2.811-1.348-4.24c0.24,2.676,0.663,5.338,1.009,8.001c1.102,8.465,2.248,16.937,2.928,25.448
					c0.163,2.045,0.254,4.073,0.108,6.122c-0.14,1.961-0.455,3.91-0.858,5.832c-0.821,3.912-2.033,7.725-3.166,11.553
					c-1.116,3.768-2.185,7.565-2.594,11.485C93.965,241.062,94.108,245.033,94.948,248.905z M102.239,214.712
					c2.804-6.577,9.016-10.167,15.924-11.091c3.128-0.419,6.296-0.331,9.43-0.031c1.719,0.164,3.504,0.092,5.169,0.597
					c1.285,0.389,2.508,1.173,3.133,2.362c1.539,2.928-1.121,6.64-2.941,8.846c-5.444,6.6-12.74,11.622-17.568,18.732
					c-1.961,2.887-3.379,6.076-4.84,9.233c-1.164,2.517-2.208,5.56-4.451,7.326c-0.613,0.483-1.364,0.866-2.142,0.801
					c-1.287-0.107-2.149-1.343-2.735-2.493c-1.609-3.154-2.54-6.641-2.926-10.264C97.446,230.795,99.114,222.042,102.239,214.712z"
					/>
				<path style="opacity:0.69;fill:#FAD6BE;" d="M94.376,237.127c0.034-0.322,0.073-0.644,0.116-0.965
					c0.23,3.103,0.678,6.203,1.533,9.195c0.906,3.166,2.301,6.277,4.539,8.732c2.823,3.097,6.739,4.446,10.833,4.811
					c4.49,0.4,9.106-0.102,13.442,1.37c-1.067,1.919-3.146,2.84-4.91,4.005c-0.896,0.592-1.748,1.266-2.406,2.123
					c-0.67,0.873-1.105,1.919-1.39,2.976c-0.559,2.08-0.561,4.278-0.456,6.414c0.121,2.438,0.363,4.853,0.687,7.271
					c0.757,5.648,1.669,11.275,2.358,16.932c0.29,2.382,0.483,4.773,0.771,7.155c0.249,2.059,0.537,4.113,0.734,6.178
					c0.2,2.094,0.325,4.207,0.198,6.309c-0.03,0.492-0.074,0.988-0.138,1.482c-2.38-0.444-4.727-1.062-7.003-1.887
					c-0.522-0.189-1.041-0.391-1.554-0.604l-5.062-54.328c-2.735-1.637-5.237-3.709-7.273-6.162
					c-1.073-1.292-2.032-2.68-2.775-4.189c-0.789-1.6-1.295-3.302-1.673-5.043C94.108,245.033,93.965,241.062,94.376,237.127z"/>
				<path style="fill:#D27A57;" d="M93.993,237.087c0.409-3.917,1.467-7.701,2.608-11.555c0.187-0.632,0.377-1.264,0.566-1.896
					c0.939-3.135,1.911-6.377,2.593-9.627c0.448-2.134,0.726-4.025,0.851-5.781c0.157-2.211,0.025-4.402-0.108-6.064
					c-0.622-7.779-1.65-15.655-2.644-23.272l-0.281-2.157c-0.102-0.784-0.211-1.568-0.319-2.352
					c-0.456-3.288-0.928-6.688-0.88-10.084c0.036-2.544,0.242-5.19,1.499-7.307c0.579-0.976,1.333-1.653,2.242-2.013l0.117-0.046
					l0.122,0.031c0.346,0.089,0.658,0.244,0.925,0.455c-0.03-0.521-0.094-1.046-0.191-1.566c-0.041-0.221-0.087-0.434-0.137-0.631
					l-0.011-0.079c-0.047-1.208-0.024-2.306,0.068-3.356c0.144-1.635,0.484-4.021,1.768-5.855c0.651-0.93,1.512-1.545,2.427-1.733
					c0.914-0.187,1.817-0.014,2.69,0.513c0.01-2.135,0.401-3.949,1.166-5.4c0.351-0.665,0.982-1.571,1.997-2.112
					c1.017-0.542,2.211-0.682,3.453-0.405c2.257,0.502,4.371,2.163,5.374,4.188c1.087-1.863,3.457-2.504,5.44-1.455
					c1.263,0.669,2.102,1.819,2.919,3.039c1.235,1.844,2.225,3.377,3.113,4.825c0.386,0.629,0.763,1.275,1.128,1.901
					c0.549,0.94,1.116,1.913,1.719,2.835c0.988,1.511,2.101,2.972,3.059,4.201l0.661,0.845c1.937,2.475,3.94,5.033,5.502,7.852
					c0.556,1.004,1.159,2.011,1.742,2.985c1.277,2.135,2.598,4.341,3.55,6.705c1.315,3.266,1.963,6.772,2.59,10.162l0.146,0.786
					c0.147,0.79,0.295,1.579,0.443,2.369c0.578,3.087,1.177,6.279,1.706,9.43c0.374,2.223,0.682,4.219,0.94,6.091
					c0.431,0.101,0.766,0.454,0.86,0.912c0.084,0.406,0.194,0.818,0.3,1.217c0.126,0.472,0.256,0.959,0.349,1.455
					c0.164,0.874,0.314,1.774,0.445,2.674c0.256,1.759,0.457,3.538,0.598,5.288c0.291,3.596,0.341,7.172,0.148,10.629
					c-0.411,7.383-1.889,14.34-4.392,20.676c-1.334,3.376-2.955,6.586-4.818,9.541c-0.208,0.33-0.419,0.656-0.633,0.98
					c1.447,5.241,10.523,38.114,15.471,56.246c-0.055,0.059-0.111,0.119-0.166,0.177c-0.149,0.156-0.305,0.306-0.459,0.457
					c-4.975-18.238-14.339-52.153-15.635-56.844l-0.047-0.169l0.097-0.146c0.244-0.367,0.485-0.737,0.721-1.112
					c1.837-2.915,3.436-6.082,4.753-9.413c2.473-6.26,3.933-13.135,4.34-20.436c0.191-3.422,0.141-6.963-0.147-10.524
					c-0.14-1.733-0.34-3.496-0.593-5.239c-0.129-0.889-0.277-1.778-0.439-2.643c-0.088-0.468-0.214-0.941-0.336-1.398
					c-0.109-0.409-0.222-0.833-0.31-1.26c-0.027-0.133-0.12-0.287-0.298-0.321c-0.007-0.001-0.034-0.003-0.072,0.005l-0.401,0.079
					l-0.055-0.405c-0.266-1.956-0.587-4.046-0.981-6.388c-0.529-3.145-1.126-6.333-1.704-9.416c-0.148-0.79-0.296-1.58-0.443-2.37
					l-0.146-0.787c-0.62-3.353-1.261-6.821-2.547-10.015c-0.929-2.308-2.234-4.489-3.496-6.598
					c-0.586-0.979-1.191-1.991-1.754-3.007c-1.533-2.766-3.516-5.3-5.435-7.751l-0.662-0.847c-0.968-1.242-2.093-2.718-3.096-4.253
					c-0.614-0.938-1.186-1.919-1.74-2.868c-0.363-0.622-0.738-1.264-1.119-1.887c-0.883-1.439-1.867-2.964-3.096-4.799
					c-0.76-1.135-1.535-2.202-2.639-2.786c-1.636-0.866-3.591-0.326-4.452,1.228c-0.114,0.205-0.216,0.422-0.312,0.664l-0.449,1.126
					l-0.283-1.179c-0.039-0.161-0.082-0.296-0.138-0.426c-0.834-1.959-2.838-3.597-4.987-4.076c-1.06-0.236-2.071-0.121-2.923,0.333
					c-0.657,0.35-1.253,0.986-1.678,1.791c-0.76,1.441-1.121,3.295-1.073,5.509c0.001,0.063,0.004,0.127,0.007,0.19l0.035,0.85
					l-0.922-0.656c-0.809-0.58-1.604-0.781-2.43-0.611c-0.72,0.148-1.413,0.652-1.951,1.42c-1.178,1.683-1.495,3.934-1.632,5.481
					c-0.089,1.006-0.111,2.059-0.067,3.219c0.05,0.202,0.096,0.416,0.137,0.639c0.147,0.788,0.223,1.586,0.224,2.372
					c0,0.223-0.141,0.418-0.351,0.485c-0.219,0.07-0.455-0.01-0.588-0.197c-0.212-0.3-0.498-0.51-0.85-0.626
					c-0.694,0.308-1.281,0.859-1.745,1.64c-1.165,1.962-1.357,4.488-1.391,6.925c-0.047,3.337,0.421,6.708,0.873,9.967
					c0.109,0.786,0.218,1.572,0.32,2.359l0.281,2.157c0.996,7.626,2.026,15.513,2.648,23.311c0.135,1.689,0.269,3.918,0.108,6.18
					c-0.127,1.791-0.411,3.715-0.866,5.884c-0.689,3.282-1.665,6.54-2.609,9.69c-0.189,0.631-0.378,1.262-0.565,1.894
					c-1.131,3.819-2.178,7.565-2.581,11.416c-0.423,4.056-0.233,7.978,0.566,11.656c0.429,1.977,0.951,3.551,1.642,4.954
					c0.677,1.374,1.568,2.719,2.725,4.113c1.953,2.352,4.367,4.397,7.175,6.077l0.168,0.1l5.098,54.72
					c-0.27-0.108-0.538-0.219-0.804-0.333l-5.024-53.927c-2.811-1.706-5.234-3.773-7.204-6.145c-1.196-1.441-2.12-2.836-2.824-4.264
					c-0.72-1.461-1.261-3.091-1.704-5.131C93.756,245.228,93.561,241.224,93.993,237.087z"/>
			</g>
			<g>
				<path style="fill:#FAD6BE;" d="M153.231,250.234c-2.659,4.113-6.361,8.16-10.95,10.098c-4.465,1.886-9.768,1.352-13.313-2.109
					c-5.778-5.641-7.051-14.58-5.241-22.175c2.12-8.897,8.491-15.662,15.165-21.527c5.426-4.768,6.939-10.802,6.171-17.854
					c-0.509-4.672-1.014-9.348-1.06-14.053c-0.023-2.306,0.066-4.613,0.308-6.907c0.184-1.742,0.394-3.542,1.219-5.116
					c0.798-1.523,2.355-2.574,4.079-2.686c3.163-0.206,4.429,2.515,5.02,5.173c0.855,3.845,2.375,7.607,3.575,11.406
					c3.292,10.42,6.858,20.406,6.483,31.519c-0.24,7.126-1.931,14.101-4.718,20.651
					C158.084,241.085,156.005,245.943,153.231,250.234z"/>
				<path style="fill:#FAD6BE;" d="M147.44,255.178c4.232-5.255,7.297-11.4,9.61-17.713c2.875-7.846,4.681-16.172,4.619-24.554
					c-0.017-2.274-0.15-4.567-0.514-6.814c-0.379-2.34-0.962-4.642-1.63-6.915c-1.351-4.593-3.014-9.072-4.097-13.743
					c-0.563-2.431-1.038-4.881-1.452-7.342c-0.269-1.598-0.499-3.208-0.814-4.798c-0.399-2.005-1.095-4.032-2.539-5.353
					c2.431,0.376,3.484,2.778,4.007,5.131c0.855,3.845,2.375,7.607,3.575,11.406c3.292,10.42,6.858,20.405,6.483,31.519
					c-0.24,7.126-1.931,14.101-4.718,20.651c-1.886,4.432-3.965,9.289-6.739,13.58c-2.592,4.01-6.178,7.951-10.608,9.942
					C144.38,258.67,145.988,256.98,147.44,255.178z"/>
				<path style="fill:#FAD6BE;" d="M123.728,236.048c2.12-8.897,8.491-15.662,15.165-21.527c5.426-4.768,6.939-10.802,6.171-17.854
					c-0.509-4.672-1.014-9.348-1.06-14.053c-0.023-2.306,0.066-4.613,0.308-6.907c0.184-1.742,0.394-3.542,1.219-5.116
					c0.798-1.523,2.355-2.574,4.079-2.686c1.493-0.097,2.564,0.458,3.34,1.351c-0.961-0.401-1.988-0.313-2.798,0.589
					c-1.134,1.262-1.402,3.049-1.563,4.671c-0.962,9.726,3.1,19.167,2.253,28.894c-0.183,2.102-0.593,4.177-1.381,6.139
					c-0.687,1.709-1.634,3.303-2.738,4.774c-2.213,2.951-5.013,5.396-7.744,7.851c-2.866,2.577-5.687,5.194-7.864,8.401
					c-2.472,3.641-4.222,7.8-4.845,12.17c-0.568,3.982-0.157,7.958,1.337,11.699c0.699,1.75,1.629,3.476,2.819,4.975
					c-0.511-0.351-0.999-0.748-1.458-1.195C123.19,252.582,121.918,243.643,123.728,236.048z"/>
				<path style="fill:#D27A57;" d="M123.353,235.959c2.203-9.246,8.963-16.172,15.285-21.727c4.951-4.35,6.871-9.918,6.043-17.523
					c-0.499-4.587-1.016-9.331-1.063-14.09c-0.024-2.473,0.077-4.746,0.31-6.951c0.168-1.589,0.376-3.566,1.261-5.255
					c0.872-1.664,2.556-2.772,4.395-2.892c2.753-0.176,4.574,1.663,5.421,5.474c0.573,2.578,1.466,5.171,2.329,7.679
					c0.416,1.209,0.847,2.459,1.237,3.695c0.288,0.912,0.578,1.821,0.868,2.728c3.074,9.623,5.977,18.713,5.633,28.92
					c-0.234,6.939-1.831,13.933-4.749,20.789c-1.848,4.343-3.943,9.266-6.77,13.638c-2.085,3.226-5.467,7.412-10.026,9.729
					c0.305-0.282,0.601-0.573,0.885-0.873c0.359-0.379,0.701-0.776,1.032-1.182c3.281-2.306,5.795-5.513,7.462-8.092
					c2.791-4.317,4.872-9.207,6.708-13.521c2.88-6.768,4.457-13.67,4.688-20.514c0.339-10.073-2.544-19.101-5.597-28.66
					c-0.29-0.907-0.58-1.817-0.869-2.73c-0.387-1.226-0.816-2.472-1.231-3.676c-0.87-2.528-1.77-5.142-2.353-7.762
					c-0.73-3.281-2.143-4.882-4.317-4.882c-0.099,0-0.2,0.003-0.303,0.01c-1.573,0.102-3.014,1.053-3.763,2.48
					c-0.817,1.558-1.008,3.375-1.178,4.978c-0.23,2.176-0.33,4.421-0.305,6.863c0.046,4.721,0.561,9.446,1.058,14.015
					c0.846,7.769-1.215,13.717-6.3,18.185c-6.231,5.475-12.891,12.291-15.045,21.327c-0.552,2.317-0.789,4.513-0.781,6.572
					c-0.02,0.181-0.044,0.362-0.06,0.544c-0.144,1.611-0.153,3.236-0.012,4.848c0.02,0.232,0.045,0.463,0.071,0.694
					c-0.069-0.28-0.135-0.563-0.195-0.849C122.321,244.104,122.4,239.958,123.353,235.959z"/>
			</g>
			<path style="fill:#D27A57;" d="M135.381,189.401c-0.683-4.4-1.919-8.643-3.689-12.726c-1.629-3.76-3.597-7.359-5.504-10.983
				c-1.19-2.262-2.362-4.54-3.409-6.873c-1.822-4.394-3.305-9.032-3.523-13.771c-0.063-1.362-0.052-2.845,0.3-4.208
				c-0.003-0.003-0.005-0.005-0.007-0.008c0.09-0.306,0.185-0.612,0.282-0.916c0.003,0.013,0.008,0.027,0.011,0.04
				c0.097-0.242,0.206-0.479,0.333-0.707c0.313-0.565,0.753-1.004,1.263-1.312c-0.077,0.17-0.151,0.341-0.222,0.513
				c-0.236,0.568-0.463,1.154-0.594,1.757c-0.28,1.29-0.199,2.571-0.039,3.852c-0.066,5.092,1.679,10.156,3.585,14.797
				c1.402,3.413,3.04,6.721,4.715,10.007c1.62,3.179,3.358,6.328,4.656,9.657c1.227,3.148,1.813,6.463,2.19,9.809
				c0.326,2.892,0.456,5.808,0.33,8.716c-0.012,0.05-0.025,0.1-0.037,0.151C136.005,194.585,135.781,191.976,135.381,189.401z"/>
			<path style="fill:#D27A57;" d="M120.464,196.08c-0.281-4.066-1.1-8.089-2.061-12.043c-1.083-4.456-2.395-8.851-3.63-13.266
				c-1.259-4.499-2.309-9.063-3.438-13.596c-0.77-3.093-1.747-6.141-2.461-9.247c-0.073-0.438-0.143-0.877-0.209-1.317
				c-0.099-0.657-0.199-1.316-0.273-1.978c-0.047-0.643-0.086-1.287-0.109-1.932c0.008-1.784,0.285-3.626,1.121-5.211
				c0.277-0.525,0.646-1.023,1.094-1.424c-0.23,0.294-0.441,0.603-0.625,0.932c-0.71,1.272-0.97,2.735-0.818,4.179
				c0.1,0.948,0.29,1.893,0.482,2.826c0.17,0.83,0.365,1.655,0.571,2.477c0.012,0.084,0.024,0.168,0.037,0.251
				c0.223,1.511,0.487,3.015,0.783,4.514c1.184,6.008,2.876,11.901,4.507,17.798c1.607,5.808,3.169,11.645,4.216,17.585
				c0.749,4.25,1.203,8.592,0.984,12.904c-0.036,0.134-0.074,0.267-0.111,0.401C120.582,198.644,120.551,197.35,120.464,196.08z"/>
			<path style="fill:#D27A57;" d="M101.395,149.819c0.086-0.975,0.231-1.993,0.496-2.97c-0.002,0.025-0.005,0.051-0.007,0.076
				c-0.279,3.834,0.111,7.678,0.75,11.459c0.649,3.835,1.552,7.62,2.285,11.439c0.755,3.93,1.651,7.832,2.405,11.762
				c0.381,1.984,0.721,3.976,0.97,5.981c0.247,1.998,0.318,4.015,0.278,6.028c-0.02,0.987-0.066,1.972-0.129,2.956
				c-0.014-0.672-0.034-1.344-0.071-2.016c-0.728-13.41-5.763-26.168-6.922-39.492c-0.011-0.132-0.022-0.264-0.033-0.397
				C101.29,153.039,101.252,151.43,101.395,149.819z"/>
			<path style="fill:#D27A57;" d="M137.223,200.462c-0.793,0.18-1.607,0.249-2.42,0.271c-0.42-0.038-0.839-0.075-1.259-0.105
				c-3.146-0.225-6.309-0.287-9.46-0.153c-3.333,0.142-6.728,0.303-10.015,0.929c-1.926,0.167-3.844,0.425-5.726,0.866
				c-0.616,0.144-1.226,0.312-1.829,0.5c1.999-1.055,4.187-1.813,6.387-2.284c2.996-0.641,6.067-0.834,9.12-0.984
				c3.169-0.156,6.323-0.191,9.491,0.014c1.681,0.109,3.354,0.272,5.022,0.508c0.501,0.071,1,0.149,1.503,0.201
				C137.77,200.32,137.497,200.4,137.223,200.462z"/>
		</g>
		<g>
			<g>
				<g>
					<g style="opacity:0.53;">
						<path style="fill:#C9CACC;" d="M141.082,213.534c0,0-0.216-58.585,0-68.962c0.216-10.376-1.72-12.631-10.639-18.848
							c-9.243-6.443-7.789-12.894-7.789-12.894h-0.68H100.49c0-3.504,0-8.763,0-10.361c0-2.466-1.307-2.324-1.307-2.324h-0.425
							h-1.934H96.4c0,0-1.307-0.142-1.307,2.324c0,1.598,0,6.857,0,10.361H64.774h-0.68c0,0,1.453,6.451-7.789,12.894
							c-8.919,6.218-10.855,8.472-10.639,18.848c0.216,10.376,0,68.962,0,68.962s-1.297,14.48,16.213,19.668
							c10.206,3.024,20.765,5.121,31.444,5.143c10.687,0.022,21.335-2.117,31.547-5.143
							C142.379,228.014,141.082,213.534,141.082,213.534z M102.074,236.364h-17.4c-0.923,0-1.679-0.755-1.679-1.679
							c0-0.923,0.756-1.679,1.679-1.679h17.4c0.923,0,1.679,0.756,1.679,1.679C103.753,235.608,102.997,236.364,102.074,236.364z"/>
						<path style="fill:#929496;" d="M93.484,238.491c-0.054,0-0.108,0-0.162,0c-9.56-0.02-19.858-1.704-31.485-5.149
							c-9.099-2.696-13.051-7.938-14.765-11.861c-1.858-4.253-1.555-7.923-1.552-7.96c0.002-0.573,0.213-58.69,0-68.946
							c-0.216-10.368,1.696-12.693,10.701-18.971c4.742-3.305,6.59-6.604,7.306-8.789c0.771-2.353,0.429-3.938,0.425-3.954
							l-0.04-0.177h31.035v-10.215c0-1.039,0.226-1.769,0.67-2.168c0.381-0.342,0.782-0.303,0.797-0.301l2.767-0.001
							c0.001-0.001,0.401-0.04,0.782,0.302c0.445,0.399,0.67,1.129,0.67,2.168v10.215h22.2l-0.039,0.177
							c-0.014,0.064-1.314,6.438,7.731,12.743c9.005,6.278,10.917,8.603,10.701,18.971c-0.213,10.23-0.003,68.075,0,68.952
							c0.014,0.181,0.267,3.787-1.552,7.953c-1.714,3.923-5.666,9.165-14.765,11.861
							C113.219,236.806,102.937,238.491,93.484,238.491z M64.265,112.975c0.146,1.092,0.492,7.034-7.877,12.868
							c-8.9,6.204-10.79,8.5-10.577,18.726c0.214,10.259,0.002,68.379,0,68.965c-0.004,0.048-0.299,3.656,1.534,7.843
							c1.69,3.862,5.591,9.023,14.575,11.685c11.599,3.437,21.871,5.117,31.403,5.137c9.471,0.029,19.775-1.661,31.505-5.137
							c8.984-2.662,12.885-7.824,14.575-11.685c1.833-4.187,1.538-7.794,1.534-7.83l-0.001-0.012
							c-0.002-0.586-0.214-58.706,0-68.965c0.213-10.226-1.677-12.522-10.577-18.726c-8.369-5.834-8.022-11.776-7.877-12.868
							h-22.139v-10.506c0-1.18-0.308-1.709-0.567-1.945c-0.282-0.258-0.568-0.235-0.58-0.234L96.4,100.29
							c-0.027-0.002-0.312-0.025-0.594,0.233c-0.259,0.236-0.567,0.766-0.567,1.945v10.506H64.265z M102.074,236.509h-17.4
							c-1.006,0-1.825-0.818-1.825-1.824c0-1.006,0.819-1.824,1.825-1.824h17.4c1.006,0,1.825,0.818,1.825,1.824
							C103.898,235.691,103.08,236.509,102.074,236.509z M84.674,233.151c-0.846,0-1.533,0.688-1.533,1.533
							c0,0.846,0.688,1.533,1.533,1.533h17.4c0.846,0,1.534-0.688,1.534-1.533c0-0.846-0.688-1.533-1.534-1.533H84.674z"/>
					</g>
					<path style="fill:#CACBCD;" d="M136.721,144.551c-0.249-3.704-1.224-7.014-2.896-9.836c-1.319-2.227-3.168-4.335-5.819-6.634
						c-1.507-1.307-2.748-2.328-3.907-3.215c-1.226-0.938-2.007-1.768-2.388-2.537c-0.657-1.327-0.944-2.921-1.161-4.311
						c-0.146-0.93-0.261-3.129-0.315-4.9h-9.288c0.023,3.097-0.23,6.823-0.974,8.025c-0.717,1.159-2.115,1.494-3.162,1.571
						c-0.29,0.022-0.571,0.033-0.833,0.033c-1.396,0-2.438-0.3-3.185-0.916c-1.481-1.223-3.971-1.77-5.781-1.77
						c-0.395,0-0.772,0.025-1.123,0.073c-1.751,0.244-2.852,1.09-3.736,1.77c-0.898,0.691-1.409,1.051-2.32,1.051
						c-0.09,0-0.184-0.004-0.281-0.011c-0.2-0.015-0.442-0.077-0.726-0.419c-1.362-1.638-1.417-6.578-1.13-9.406h-8.219
						c0.275,2.486,0.356,7.901-1.113,9.552c-0.237,0.267-0.477,0.381-0.801,0.381l-0.065-0.001
						c-0.053-0.002-0.176-0.008-0.384-0.238c-1.201-1.33-1.688-5.731-1.736-9.693h-9.569c-0.223,3.281-1.069,8.163-3.987,10.976
						c-1.066,1.029-2.193,2.006-3.281,2.952c-4.759,4.133-9.68,8.407-10.293,17.504c-0.355,5.272,0.104,13.199,0.59,21.592
						c0.488,8.424,0.993,17.134,0.661,23.364c-0.059,1.102-0.119,2.203-0.18,3.297c-0.661,11.975-1.232,22.316,1.262,26.4
						c5.957,9.758,28.041,12.227,37.223,12.833c0.107,0.01,2.65,0.24,4.273,0.24c0.144,0,0.281-0.001,0.408-0.005
						c0.127,0.004,0.263,0.005,0.407,0.005c1.624,0,4.174-0.231,4.246-0.238c9.216-0.609,31.294-3.079,37.251-12.835
						c2.493-4.084,1.923-14.423,1.262-26.396c-0.061-1.096-0.121-2.198-0.18-3.302c-0.332-6.23,0.173-14.94,0.661-23.363
						C136.617,157.75,137.076,149.822,136.721,144.551z"/>
					<path style="fill:#B01A1F;" d="M135.271,144.648c-0.217-3.225-1.041-6.398-2.696-9.192c-1.434-2.42-3.407-4.444-5.521-6.277
						c-1.25-1.085-2.523-2.153-3.838-3.159c-1.033-0.791-2.209-1.839-2.807-3.048c-0.728-1.471-1.043-3.121-1.294-4.73
						c-0.233-1.49-0.379-5.625-0.365-7.135l-6.404,0c0,0,0.42,8.285-1.136,10.8c-0.931,1.505-2.592,2.131-4.291,2.256
						c-1.76,0.13-3.641-0.048-5.051-1.213c-1.283-1.06-3.957-1.632-5.779-1.378c-2.993,0.417-3.53,3.061-6.65,2.82
						c-4.392-0.34-3.176-11.562-3.176-11.562h-5.355c0,0,1.393,11.885-3.473,11.671c-4.286-0.189-3.438-14.872-3.438-14.872h-6.697
						c0,0,0.75,10.479-4.47,15.511c-5.736,5.53-12.425,9.012-13.133,19.508c-0.708,10.496,1.915,32.472,1.252,44.936
						c-0.662,12.463-1.606,24.806,0.871,28.863c4.309,7.057,19.362,11.037,36.115,12.143c0,0,3.06,0.28,4.549,0.228
						c1.488,0.052,4.557-0.228,4.557-0.228c16.749-1.108,31.799-5.087,36.106-12.143c2.477-4.057,1.534-16.4,0.871-28.863
						C133.356,177.12,135.979,155.144,135.271,144.648z"/>
					<g>
						<path style="fill:#FFFFFF;" d="M120.862,216.999H65.13c-3.667,0-6.667-3-6.667-6.667V154.6c0-3.667,3-6.667,6.667-6.667
							h55.732c3.667,0,6.667,3,6.667,6.667v55.732C127.529,213.999,124.528,216.999,120.862,216.999z"/>
						<g>
							<path style="fill:#CD1E25;" d="M77.692,159.443c-1.392-2.208-2.823-4.083-3.961-5.457c-1.138,1.374-2.57,3.249-3.961,5.457
								c-3.433,5.447-6.584,12.911-4.339,19.879c0.087,0.271,0.17,0.543,0.274,0.812c0.824,2.134,2.127,3.549,3.647,4.405
								c1.348,0.76,2.866,1.075,4.379,1.044c1.513,0.031,3.031-0.284,4.379-1.044c1.519-0.856,2.823-2.271,3.647-4.405
								c0.104-0.27,0.187-0.541,0.274-0.813C84.275,172.354,81.124,164.89,77.692,159.443z"/>
							<path style="fill:#FFFFFF;" d="M74.47,159.844c-0.64-1.015-1.298-1.876-1.82-2.508c-0.523,0.632-1.181,1.493-1.82,2.508
								c-1.578,2.503-3.026,5.934-1.994,9.136c0.04,0.125,0.078,0.249,0.126,0.373c0.379,0.981,0.978,1.631,1.676,2.025
								c0.62,0.349,1.317,0.494,2.013,0.48c0.695,0.014,1.393-0.131,2.012-0.48c0.698-0.393,1.297-1.044,1.676-2.025
								c0.048-0.124,0.086-0.249,0.126-0.374C77.496,165.778,76.048,162.348,74.47,159.844z"/>
							<g>
								<g>
									<g>
										<g>
											<rect x="87.73" y="185.952" style="fill:#231F20;" width="1.696" height="6.404"/>
											<rect x="89.857" y="185.952" style="fill:#231F20;" width="0.848" height="6.404"/>
											<rect x="91.137" y="185.952" style="fill:#231F20;" width="0.424" height="6.404"/>
											<rect x="91.993" y="185.952" style="fill:#231F20;" width="0.76" height="6.404"/>
											<rect x="93.184" y="185.952" style="fill:#231F20;" width="0.38" height="6.404"/>
											<rect x="93.996" y="185.952" style="fill:#231F20;" width="0.19" height="6.404"/>
											<rect x="94.617" y="185.952" style="fill:#231F20;" width="1.696" height="6.404"/>
											<rect x="101.504" y="185.952" style="fill:#231F20;" width="5.066" height="6.404"/>
											<rect x="96.745" y="185.952" style="fill:#231F20;" width="0.848" height="6.404"/>
											<rect x="98.024" y="185.952" style="fill:#231F20;" width="0.424" height="6.404"/>
											<rect x="98.88" y="185.952" style="fill:#231F20;" width="0.76" height="6.404"/>
											<rect x="100.071" y="185.952" style="fill:#231F20;" width="0.38" height="6.404"/>
											<rect x="100.883" y="185.952" style="fill:#231F20;" width="0.19" height="6.404"/>
										</g>
										<g>
											<rect x="106.878" y="185.952" style="fill:#231F20;" width="2.474" height="6.404"/>
											<rect x="109.783" y="185.952" style="fill:#231F20;" width="0.848" height="6.404"/>
											<rect x="111.063" y="185.952" style="fill:#231F20;" width="0.424" height="6.404"/>
											<rect x="111.919" y="185.952" style="fill:#231F20;" width="0.76" height="6.404"/>
											<rect x="113.11" y="185.952" style="fill:#231F20;" width="0.38" height="6.404"/>
											<rect x="113.922" y="185.952" style="fill:#231F20;" width="0.19" height="6.404"/>
											<rect x="114.543" y="185.952" style="fill:#231F20;" width="1.696" height="6.404"/>
											<rect x="121.43" y="185.952" style="fill:#231F20;" width="2.533" height="6.404"/>
											<rect x="116.67" y="185.952" style="fill:#231F20;" width="0.848" height="6.404"/>
											<rect x="117.95" y="185.952" style="fill:#231F20;" width="0.424" height="6.404"/>
											<rect x="118.806" y="185.952" style="fill:#231F20;" width="0.76" height="6.404"/>
											<rect x="119.997" y="185.952" style="fill:#231F20;" width="0.38" height="6.404"/>
											<rect x="120.809" y="185.952" style="fill:#231F20;" width="0.19" height="6.404"/>
										</g>
									</g>
									<g>
										<rect x="88.154" y="194.301" style="fill:#5F6062;" width="35.385" height="1.459"/>
										<rect x="88.154" y="196.571" style="fill:#5F6062;" width="35.385" height="1.459"/>
										<g>
											<rect x="88.154" y="198.841" style="fill:#B6B8BA;" width="21.629" height="1.459"/>
											<rect x="110.639" y="198.841" style="fill:#B6B8BA;" width="12.9" height="1.459"/>
										</g>
									</g>
									<g>
										<g>
											<rect x="88.154" y="201.435" style="fill:#B6B8BA;" width="19.163" height="0.907"/>
											<rect x="88.154" y="202.846" style="fill:#B6B8BA;" width="19.163" height="0.907"/>
											<g>
												<rect x="88.154" y="204.257" style="fill:#B6B8BA;" width="11.713" height="0.907"/>
												<rect x="100.331" y="204.257" style="fill:#B6B8BA;" width="6.986" height="0.907"/>
											</g>
										</g>
										<g>
											<rect x="107.937" y="201.435" style="fill:#B6B8BA;" width="15.602" height="0.907"/>
											<rect x="107.937" y="202.846" style="fill:#B6B8BA;" width="15.602" height="0.907"/>
											<g>
												<rect x="107.937" y="204.257" style="fill:#B6B8BA;" width="9.537" height="0.907"/>
												<rect x="117.851" y="204.257" style="fill:#B6B8BA;" width="5.688" height="0.907"/>
											</g>
										</g>
									</g>
									<g>
										<g>
											
												<rect x="104.377" y="206.083" transform="matrix(-1 -1.224647e-16 1.224647e-16 -1 227.9158 413.0724)" style="fill:#B6B8BA;" width="19.163" height="0.907"/>
											
												<rect x="104.377" y="207.494" transform="matrix(-1 -1.224647e-16 1.224647e-16 -1 227.9158 415.8943)" style="fill:#B6B8BA;" width="19.163" height="0.907"/>
											<g>
												
													<rect x="111.826" y="208.905" transform="matrix(-1 -1.224647e-16 1.224647e-16 -1 235.3651 418.7162)" style="fill:#B6B8BA;" width="11.713" height="0.907"/>
												
													<rect x="104.377" y="208.905" transform="matrix(-1 -1.224647e-16 1.224647e-16 -1 215.7392 418.7162)" style="fill:#B6B8BA;" width="6.986" height="0.907"/>
											</g>
										</g>
										<g>
											
												<rect x="88.154" y="206.083" transform="matrix(-1 -1.224647e-16 1.224647e-16 -1 191.9105 413.0724)" style="fill:#B6B8BA;" width="15.602" height="0.907"/>
											
												<rect x="88.154" y="207.494" transform="matrix(-1 -1.224647e-16 1.224647e-16 -1 191.9105 415.8943)" style="fill:#B6B8BA;" width="15.602" height="0.907"/>
											<g>
												
													<rect x="94.219" y="208.905" transform="matrix(-1 -1.224647e-16 1.224647e-16 -1 197.9758 418.7162)" style="fill:#B6B8BA;" width="9.537" height="0.907"/>
												
													<rect x="88.154" y="208.905" transform="matrix(-1 -1.224647e-16 1.224647e-16 -1 181.9963 418.7162)" style="fill:#B6B8BA;" width="5.688" height="0.907"/>
											</g>
										</g>
									</g>
								</g>
								<g>
									<g>
										<rect x="62.839" y="194.378" style="fill:#E2E3E4;" width="20.753" height="0.489"/>
										<rect x="62.839" y="195.45" style="fill:#E2E3E4;" width="20.753" height="0.489"/>
										<rect x="62.839" y="193.307" style="fill:#E2E3E4;" width="20.753" height="0.489"/>
										<rect x="62.839" y="196.521" style="fill:#E2E3E4;" width="20.753" height="0.489"/>
										<rect x="62.839" y="198.663" style="fill:#E2E3E4;" width="20.753" height="0.489"/>
										<rect x="62.839" y="199.735" style="fill:#E2E3E4;" width="20.753" height="0.489"/>
										<rect x="62.839" y="197.592" style="fill:#E2E3E4;" width="20.753" height="0.489"/>
										<rect x="62.839" y="200.805" style="fill:#E2E3E4;" width="20.753" height="0.489"/>
									</g>
									<g>
										<rect x="62.839" y="203.14" style="fill:#E2E3E4;" width="20.753" height="0.489"/>
										<rect x="62.839" y="204.211" style="fill:#E2E3E4;" width="20.753" height="0.489"/>
										<rect x="62.839" y="202.069" style="fill:#E2E3E4;" width="20.753" height="0.489"/>
										<rect x="62.839" y="205.282" style="fill:#E2E3E4;" width="20.753" height="0.489"/>
										<rect x="62.839" y="207.425" style="fill:#E2E3E4;" width="20.753" height="0.489"/>
										<rect x="62.839" y="208.496" style="fill:#E2E3E4;" width="20.753" height="0.489"/>
										<rect x="62.839" y="206.354" style="fill:#E2E3E4;" width="20.753" height="0.489"/>
										<rect x="62.839" y="209.568" style="fill:#E2E3E4;" width="20.753" height="0.489"/>
									</g>
								</g>
							</g>
						</g>
					</g>
					<path style="fill:#B7B8BA;" d="M135.271,144.648c-0.217-3.225-1.041-6.398-2.696-9.192c-1.434-2.42-3.407-4.444-5.521-6.277
						c-1.25-1.085-2.523-2.153-3.838-3.159c-1.033-0.791-2.209-1.839-2.807-3.048c-0.728-1.471-1.043-3.121-1.294-4.73
						c-0.233-1.49-0.379-5.625-0.365-7.135l-6.404,0c0,0,0.42,8.285-1.136,10.8c-0.931,1.505-2.592,2.131-4.291,2.256
						c-1.76,0.13-3.641-0.048-5.051-1.213c-1.283-1.06-3.957-1.632-5.779-1.378c-2.993,0.417-3.53,3.061-6.65,2.82
						c-4.392-0.34-3.176-11.562-3.176-11.562h-5.355c0,0,1.393,11.885-3.473,11.671c-4.286-0.189-3.438-14.872-3.438-14.872h-6.697
						c0,0,0.75,10.479-4.47,15.511c-5.736,5.53-12.425,9.012-13.133,19.508c-0.708,10.496,1.915,32.472,1.252,44.936
						c-0.662,12.463-1.606,24.806,0.871,28.863c4.309,7.057,19.362,11.037,36.115,12.143c0,0,3.06,0.28,4.549,0.228
						c1.488,0.052,4.557-0.228,4.557-0.228c16.749-1.108,31.799-5.087,36.106-12.143c2.477-4.057,1.534-16.4,0.871-28.863
						C133.356,177.12,135.979,155.144,135.271,144.648z M131.428,211.987c-1.929,8.465-13.072,11.786-31.817,13.819
						c-18.744,2.032-41.366-3.961-45.438-8.276c-4.072-4.315-1.5-17.436,0.321-28.58c1.821-11.143-3.214-34.93-3.322-40.487
						c-0.107-5.556,0.677-11.78,7.179-16.515c6.503-4.735,8.689-9.614,8.689-9.614c0.653-3.29,5.133-2.174,5.562-0.763
						c0.429,1.411,1.388,6.202,4.831,6.288c2.777,0.069,2.241-1.691,6.781-1.639c2.634,0.03,3.316,2.838,10.627-0.916
						c5.435-2.79,8.619,2.892,13.097,2.555c4.478-0.337,6.843-4.917,10.366-0.936c4.157,4.698,7.979,6.737,11.729,12.292
						c3.75,5.554,1.179,30.126,0.75,39.877C130.356,188.843,133.356,203.523,131.428,211.987z"/>
					<path style="fill:#B7B8BA;" d="M135.271,144.648c-0.217-3.225-1.041-6.398-2.696-9.192c-1.434-2.42-3.407-4.444-5.521-6.277
						c-1.25-1.085-2.523-2.153-3.838-3.159c-1.033-0.791-2.209-1.839-2.807-3.048c-0.728-1.471-1.043-3.121-1.294-4.73
						c-0.233-1.49-0.379-5.625-0.365-7.135l-6.404,0c0,0,0.42,8.285-1.136,10.8c-0.931,1.505-2.592,2.131-4.291,2.256
						c-1.76,0.13-3.641-0.048-5.051-1.213c-1.283-1.06-3.957-1.632-5.779-1.378c-2.993,0.417-3.53,3.061-6.65,2.82
						c-2.424-0.187-3.139-3.691-3.293-6.793c-0.341-0.235-0.698-0.446-1.072-0.626c-1.102-0.528-2.412-0.76-3.568-0.261
						c-0.147,0.064-0.285,0.141-0.419,0.222c-0.059,3.413-0.714,7.695-3.652,7.566c-4.286-0.189-3.438-14.872-3.438-14.872h-6.697
						c0,0,0.75,10.479-4.47,15.511c-5.736,5.53-12.425,9.012-13.133,19.508c-0.708,10.496,1.915,32.472,1.252,44.936
						c-0.662,12.463-1.606,24.806,0.871,28.863c4.309,7.057,19.362,11.037,36.115,12.143c0,0,3.06,0.28,4.549,0.228
						c1.488,0.052,4.557-0.228,4.557-0.228c16.749-1.108,31.799-5.087,36.106-12.143c2.477-4.057,1.534-16.4,0.871-28.863
						C133.356,177.12,135.979,155.144,135.271,144.648z M131.428,211.987c-1.929,8.465-13.072,11.786-31.817,13.819
						c-18.744,2.032-41.366-3.961-45.438-8.276c-4.072-4.315-1.5-17.436,0.321-28.58c1.821-11.143-3.214-34.93-3.322-40.487
						c-0.107-5.556,0.677-11.78,7.179-16.515c6.503-4.735,8.689-9.614,8.689-9.614c0.653-3.29,5.133-2.174,5.562-0.763
						c0.429,1.411,1.388,6.202,4.831,6.288c2.777,0.069,2.241-1.691,6.781-1.639c2.634,0.03,3.316,2.838,10.627-0.916
						c5.435-2.79,8.619,2.892,13.097,2.555c4.478-0.337,6.843-4.917,10.366-0.936c4.157,4.698,7.979,6.737,11.729,12.292
						c3.75,5.554,1.179,30.126,0.75,39.877C130.356,188.843,133.356,203.523,131.428,211.987z"/>
					<g>
						<g style="opacity:0.53;">
							<path style="fill:#C9CACC;" d="M73.295,96.827h-1.816H69.36h-1.816c0,0-1.665-0.169-1.665,2.776c0,2.945,0,16.301,0,16.301
								h3.784h1.513h3.784c0,0,0-13.356,0-16.301C74.96,96.658,73.295,96.827,73.295,96.827z"/>
							<path style="fill:#929496;" d="M75.106,116.049h-9.372V99.603c0-1.201,0.27-2.053,0.801-2.533
								c0.483-0.437,1.002-0.39,1.024-0.387l5.731-0.001c0.073-0.005,0.56-0.023,1.015,0.388c0.531,0.48,0.801,1.332,0.801,2.533
								V116.049z M66.025,115.758h8.79V99.603c0-1.094-0.242-1.894-0.699-2.312c-0.385-0.352-0.79-0.32-0.806-0.319l-0.014,0.001
								h-5.751c-0.031-0.002-0.435-0.034-0.82,0.318c-0.457,0.418-0.699,1.217-0.699,2.312V115.758z"/>
						</g>
						<g>
							<path style="fill:#B7B8BA;" d="M73.474,99.641h-6.108c-0.401,0-0.726-0.325-0.726-0.727s0.325-0.727,0.726-0.727h6.108
								c0.401,0,0.727,0.325,0.727,0.727S73.875,99.641,73.474,99.641z"/>
							<path style="fill:#B7B8BA;" d="M73.474,101.596h-6.108c-0.401,0-0.726-0.325-0.726-0.727c0-0.401,0.325-0.727,0.726-0.727
								h6.108c0.401,0,0.727,0.326,0.727,0.727C74.2,101.271,73.875,101.596,73.474,101.596z"/>
							<path style="fill:#B7B8BA;" d="M73.474,103.552h-6.108c-0.401,0-0.726-0.325-0.726-0.727c0-0.401,0.325-0.727,0.726-0.727
								h6.108c0.401,0,0.727,0.326,0.727,0.727C74.2,103.226,73.875,103.552,73.474,103.552z"/>
							<path style="fill:#B7B8BA;" d="M73.474,105.507h-6.108c-0.401,0-0.726-0.326-0.726-0.727s0.325-0.727,0.726-0.727h6.108
								c0.401,0,0.727,0.326,0.727,0.727S73.875,105.507,73.474,105.507z"/>
							<path style="fill:#B7B8BA;" d="M73.474,107.463h-6.108c-0.401,0-0.726-0.326-0.726-0.727c0-0.401,0.325-0.727,0.726-0.727
								h6.108c0.401,0,0.727,0.325,0.727,0.727C74.2,107.137,73.875,107.463,73.474,107.463z"/>
							<path style="fill:#B7B8BA;" d="M73.474,109.418h-6.108c-0.401,0-0.726-0.326-0.726-0.727c0-0.401,0.325-0.727,0.726-0.727
								h6.108c0.401,0,0.727,0.325,0.727,0.727C74.2,109.093,73.875,109.418,73.474,109.418z"/>
							<path style="fill:#B7B8BA;" d="M73.474,111.373h-6.108c-0.401,0-0.726-0.326-0.726-0.727c0-0.401,0.325-0.727,0.726-0.727
								h6.108c0.401,0,0.727,0.325,0.727,0.727C74.2,111.048,73.875,111.373,73.474,111.373z"/>
							<path style="fill:#B7B8BA;" d="M73.474,113.329h-6.108c-0.401,0-0.726-0.326-0.726-0.727c0-0.401,0.325-0.727,0.726-0.727
								h6.108c0.401,0,0.727,0.326,0.727,0.727C74.2,113.004,73.875,113.329,73.474,113.329z"/>
						</g>
					</g>
					<g>
						<g style="opacity:0.53;">
							<path style="fill:#C9CACC;" d="M118.375,96.827h-1.816h-2.119h-1.816c0,0-1.665-0.169-1.665,2.776c0,2.945,0,16.301,0,16.301
								h3.784h1.513h3.784c0,0,0-13.356,0-16.301C120.04,96.658,118.375,96.827,118.375,96.827z"/>
							<path style="fill:#929496;" d="M120.185,116.049h-9.372V99.603c0-1.201,0.269-2.053,0.801-2.533
								c0.484-0.437,1.002-0.39,1.024-0.387l5.731-0.001c0.074-0.005,0.56-0.023,1.016,0.388c0.531,0.48,0.801,1.332,0.801,2.533
								V116.049z M111.104,115.758h8.79V99.603c0-1.094-0.242-1.894-0.699-2.312c-0.385-0.352-0.79-0.32-0.806-0.319l-0.014,0.001
								h-5.751c-0.031-0.002-0.435-0.034-0.82,0.318c-0.457,0.418-0.699,1.217-0.699,2.312V115.758z"/>
						</g>
						<g>
							<path style="fill:#B7B8BA;" d="M118.553,99.641h-6.108c-0.401,0-0.727-0.325-0.727-0.727s0.325-0.727,0.727-0.727h6.108
								c0.401,0,0.727,0.325,0.727,0.727S118.954,99.641,118.553,99.641z"/>
							<path style="fill:#B7B8BA;" d="M118.553,101.596h-6.108c-0.401,0-0.727-0.325-0.727-0.727c0-0.401,0.325-0.727,0.727-0.727
								h6.108c0.401,0,0.727,0.326,0.727,0.727C119.28,101.271,118.954,101.596,118.553,101.596z"/>
							<path style="fill:#B7B8BA;" d="M118.553,103.552h-6.108c-0.401,0-0.727-0.325-0.727-0.727c0-0.401,0.325-0.727,0.727-0.727
								h6.108c0.401,0,0.727,0.326,0.727,0.727C119.28,103.226,118.954,103.552,118.553,103.552z"/>
							<path style="fill:#B7B8BA;" d="M118.553,105.507h-6.108c-0.401,0-0.727-0.326-0.727-0.727s0.325-0.727,0.727-0.727h6.108
								c0.401,0,0.727,0.326,0.727,0.727S118.954,105.507,118.553,105.507z"/>
							<path style="fill:#B7B8BA;" d="M118.553,107.463h-6.108c-0.401,0-0.727-0.326-0.727-0.727c0-0.401,0.325-0.727,0.727-0.727
								h6.108c0.401,0,0.727,0.325,0.727,0.727C119.28,107.137,118.954,107.463,118.553,107.463z"/>
							<path style="fill:#B7B8BA;" d="M118.553,109.418h-6.108c-0.401,0-0.727-0.326-0.727-0.727c0-0.401,0.325-0.727,0.727-0.727
								h6.108c0.401,0,0.727,0.325,0.727,0.727C119.28,109.093,118.954,109.418,118.553,109.418z"/>
							<path style="fill:#B7B8BA;" d="M118.553,111.373h-6.108c-0.401,0-0.727-0.326-0.727-0.727c0-0.401,0.325-0.727,0.727-0.727
								h6.108c0.401,0,0.727,0.325,0.727,0.727C119.28,111.048,118.954,111.373,118.553,111.373z"/>
							<path style="fill:#B7B8BA;" d="M118.553,113.329h-6.108c-0.401,0-0.727-0.326-0.727-0.727c0-0.401,0.325-0.727,0.727-0.727
								h6.108c0.401,0,0.727,0.326,0.727,0.727C119.28,113.004,118.954,113.329,118.553,113.329z"/>
						</g>
					</g>
					<g>
						<path style="fill:#B01A1F;" d="M85.493,129.641c-0.312-0.841-1.451-0.973-2.214-0.94c-0.95,0.041-1.87,0.286-2.793,0.495
							c-0.831,0.188-1.663,0.382-2.499,0.546c-1.681,0.329-3.747,0.624-5.234-0.446c-0.843-0.606-1.341-1.612-1.705-2.557
							c-0.36-0.936-0.64-1.909-0.916-2.873c-0.174-0.606-0.368-1.387-0.892-1.793c-0.633-0.491-1.369,0.103-1.66,0.682
							c-0.367,0.73-0.462,1.544-0.723,2.309c-0.358,1.051-0.843,2.09-1.498,2.99c-1.336,1.835-3.367,3.073-5.201,4.347
							c-1.813,1.26-3.592,2.619-4.762,4.528c-1.113,1.816-1.694,3.904-1.957,6.005c-0.073,0.583-0.112,1.166-0.134,1.751
							c-0.042,0.296-0.077,0.593-0.104,0.891c-0.111,1.226-0.135,2.463-0.019,3.689c0.05,0.532,0.147,1.054,0.234,1.58
							c0.061,0.368,0.13,0.863,0.45,1.107c0.682,0.52,1.245-0.319,1.42-0.889c0.292-0.952,0.509-1.93,0.782-2.889
							c0.327-1.147,0.695-2.287,1.196-3.371c0.512-1.11,1.196-2.126,1.962-3.075c1.517-1.88,3.349-3.421,5.498-4.531
							c4.197-2.169,9.027-2.859,13.654-3.481c2.113-0.284,4.422-0.681,6.108-2.092C85.02,131.176,85.781,130.417,85.493,129.641z
							 M56.03,137.021c0.561-0.895,1.263-1.665,2.057-2.359c0.409-0.357,0.834-0.692,1.27-1.015
							c-0.787,0.638-1.546,1.316-2.213,2.08c-0.762,0.872-1.371,1.855-1.896,2.885c-0.081,0.159-0.156,0.322-0.233,0.483
							C55.288,138.374,55.62,137.677,56.03,137.021z"/>
						<path style="fill:#B01A1F;" d="M103.693,129.123c-0.035-0.134-0.094-0.262-0.17-0.377c-0.773-1.17-2.565-1.637-3.844-1.921
							c-2.473-0.55-5.925-0.24-7.98,1.37c-0.88,0.689-1.693,2.25-0.237,2.81c0.443,0.17,0.934,0.151,1.406,0.103
							c1.605-0.162,3.026-0.937,4.57-1.161c1.634-0.237,3.241,0.445,4.875,0.399c0.513-0.014,1.111-0.131,1.335-0.592
							C103.744,129.557,103.749,129.334,103.693,129.123z"/>
						<path style="fill:#B01A1F;" d="M117.519,129.07c-0.121-0.31-0.321-0.601-0.531-0.811c-0.803-0.803-2.041-0.898-3.105-0.719
							c-1.297,0.218-2.602,0.753-3.745,1.399c-2.147,1.212,0.552,1.29,1.533,1.203c1.479-0.131,2.67,0.271,4.089,0.493
							c0.48,0.075,1.033,0.114,1.452-0.181C117.704,130.108,117.712,129.564,117.519,129.07z"/>
					</g>
					<path style="fill:#B01A1F;" d="M64.429,220.466c-0.263-0.403-1.409-1.129-1.501-1.19c-2.916-1.941-5.161-3.896-6.459-7.244
						c-1.138-2.933-1.416-6.15-1.28-9.271c0.061-1.415,0.198-2.826,0.369-4.232c0.146-1.198,0.584-2.611,0.286-3.803
						c-0.24-0.962-0.797-1.022-1.221-0.063c-0.272,0.615-0.245,1.353-0.276,2.01c-0.061,1.299-0.158,2.596-0.28,3.89
						c-0.216,2.292-0.49,4.577-0.709,6.868c-0.287,3.001-0.402,5.843,1.319,8.454c1.615,2.449,4.408,3.874,7.194,4.55
						C62.149,220.502,64.744,220.948,64.429,220.466z"/>
					<path style="fill:#B01A1F;" d="M114.117,222.188c0.025-0.015,0.05-0.027,0.075-0.042c0.263-0.162,0.637-0.415,0.701-0.717
						c0.181-0.858-2.186-0.124-2.508-0.028c-0.517,0.154-1.024,0.336-1.537,0.503c-0.925,0.301-1.915,0.461-2.872,0.622
						c-2.433,0.41-4.896,0.588-7.354,0.773c-5.025,0.379-10.115,0.635-15.144,0.181c-1.234-0.111-2.497-0.229-3.71-0.49
						c-0.977-0.21-1.923-0.541-2.896-0.767c-0.721-0.167-1.55-0.368-2.291-0.209c-1.667,0.358,2.146,1.626,2.609,1.733
						c5.114,1.18,10.356,1.579,15.594,1.329c5.987-0.276,11.927-1.282,17.787-2.5C113.008,222.486,113.58,222.374,114.117,222.188z"
						/>
					<path style="fill:#B01A1F;" d="M131.146,153.996c-0.483-6.558-0.032-15-6.105-19.274c-0.405-0.285-0.851-0.533-1.341-0.603
						c-0.49-0.07-1.031,0.066-1.35,0.444c-0.722,0.855,0.387,2.087,0.902,2.738c1.137,1.437,3.431,3.313,3.585,5.237
						c0.094,1.176-1.055,1.59-1.993,1.804c-2.068,0.472-4.209,0.445-6.318,0.423c-0.923-0.009-2.016-0.06-2.899,0.24
						c-0.925,0.314-0.934,0.841-0.285,1.361c0.793,0.636,2.47,0.473,3.401,0.399c1.992-0.158,4.039-0.108,6.032,0.082
						c2.371,0.227,3.792,1.744,4.382,3.994c0.595,2.27,0.352,4.677,1.146,6.912c0.071,0.199,0.331,0.129,0.443,0.008
						c0.378-0.41,0.437-1.036,0.466-1.567C131.251,155.462,131.2,154.726,131.146,153.996z"/>
					<path style="fill:#FFFFFF;" d="M55.463,127.322c-1.13,0.885-2.421,1.537-3.552,2.421c-1.126,0.88-2.024,1.984-2.825,3.16
						c-0.813,1.193-1.512,2.444-1.977,3.814c-0.446,1.315-0.706,2.692-0.804,4.076c-0.057,0.802-0.073,1.609-0.069,2.413
						c0.004,0.77,0.022,1.555,0.178,2.311c0.022,0.108,0.199,0.017,0.2-0.065c0.018-1.395,0.184-2.775,0.292-4.164
						c0.107-1.371,0.307-2.743,0.7-4.063c0.397-1.333,1.008-2.542,1.76-3.708c0.761-1.18,1.589-2.326,2.663-3.243
						c1.155-0.987,2.461-1.773,3.558-2.832C55.683,127.351,55.56,127.246,55.463,127.322z"/>
					<path style="fill:#FFFFFF;" d="M58.348,230.631c-2.563-1.275-5.032-2.936-6.892-5.136c-1.692-2.002-2.861-4.348-3.596-6.855
						c-0.411-1.401-0.608-2.818-0.864-4.25c-0.017-0.094-0.159-0.009-0.165,0.054c-0.142,1.33,0.037,2.716,0.309,4.018
						c0.271,1.297,0.725,2.552,1.298,3.745c1.157,2.411,2.869,4.565,5.036,6.144c1.422,1.036,3.063,1.862,4.696,2.51
						C58.279,230.902,58.478,230.695,58.348,230.631z"/>
					<path style="fill:#FFFFFF;" d="M139.834,215.023c-0.013-0.11-0.206-0.02-0.206,0.067c0.001,0.667-0.133,1.36-0.283,2.008
						c-0.148,0.638-0.329,1.266-0.546,1.885c-0.438,1.248-1.013,2.453-1.67,3.599c-1.276,2.226-2.968,4.196-5.083,5.661
						c-1.337,0.926-2.838,1.585-4.18,2.501c-0.103,0.07-0.055,0.229,0.075,0.165c1.362-0.662,2.783-1.226,4.065-2.04
						c1.136-0.722,2.167-1.615,3.08-2.603c1.806-1.957,3.209-4.336,4.124-6.834c0.266-0.725,0.491-1.474,0.613-2.238
						C139.941,216.459,139.922,215.759,139.834,215.023z"/>
					<path style="fill:#FFFFFF;" d="M139.281,136.434c-0.531-1.442-1.377-2.795-2.391-3.946c-0.29-0.33-0.602-0.642-0.925-0.939
						c-0.336-0.31-0.706-0.57-1.054-0.865c-0.074-0.063-0.253,0.08-0.178,0.153c0.348,0.345,0.652,0.747,0.965,1.124
						c0.298,0.358,0.59,0.721,0.876,1.089c0.595,0.766,1.137,1.582,1.579,2.446c0.889,1.737,1.405,3.705,1.399,5.661
						c0,0.13,0.188,0.051,0.202-0.043C139.979,139.528,139.835,137.94,139.281,136.434z"/>
				</g>
				<path style="fill:#C9CACC;" d="M98.024,101.248c0,0-0.506,0-0.856,0c-0.35,0-0.856,0.146-0.856,0.85c0,0.705,0,11.557,0,11.557
					h-7.735c0,0,3.258,2.975,9.446,2.892c6.188-0.083,11.759-2.892,11.759-2.892H99.639v-10.83
					C99.639,102.825,100.114,101.06,98.024,101.248z"/>
			</g>
			<path d="M105.882,171.113l-1.507,5.432h-4.961l6.468-21.163h6.28l6.562,21.163h-5.149l-1.633-5.432H105.882z M111.251,167.533
				l-1.319-4.49c-0.377-1.256-0.754-2.826-1.067-4.082h-0.063c-0.314,1.256-0.628,2.857-0.973,4.082l-1.256,4.49H111.251z"/>
		</g>
	</g>
	<g>
		<g>
			<g>
				<path style="fill:#CD1E25;" d="M306.591,150.546c-5.521-12.737-21.997-18.365-34.691-13.92
					c-6.87,2.406-12.419,7.448-16.706,13.556c-4.287-6.108-9.836-11.15-16.705-13.556c-12.695-4.446-29.17,1.183-34.691,13.92
					c-3.728,8.599-2.659,18.63,0.166,27.319c6.077,18.691,20.511,34.01,37.923,43.009c4.282,2.213,8.745,4.04,13.308,5.444
					c4.562-1.404,9.025-3.231,13.307-5.444c17.413-8.999,31.847-24.318,37.923-43.009
					C309.25,169.176,310.319,159.146,306.591,150.546z"/>
				<path style="fill:#790405;" d="M255.194,226.788c-0.047,0-0.093-0.007-0.138-0.021c-4.578-1.41-9.082-3.252-13.385-5.476
					c-18.396-9.507-32.303-25.283-38.154-43.281c-2.373-7.299-4.325-18.02-0.15-27.651c2.665-6.148,7.964-10.998,14.919-13.655
					c6.64-2.537,14.06-2.727,20.358-0.521c6.251,2.189,11.816,6.625,16.55,13.189c4.734-6.564,10.3-11,16.551-13.189
					c6.298-2.206,13.719-2.016,20.358,0.521c6.955,2.657,12.254,7.507,14.919,13.655c4.174,9.63,2.222,20.352-0.151,27.651
					c-5.851,17.999-19.758,33.774-38.154,43.281c-4.303,2.224-8.806,4.066-13.385,5.476
					C255.287,226.781,255.241,226.788,255.194,226.788z M229.372,135.594c-3.609,0-7.289,0.665-10.751,1.988
					c-6.717,2.566-11.829,7.237-14.392,13.152c-4.058,9.361-2.141,19.842,0.182,26.987c5.776,17.766,19.514,33.343,37.692,42.737
					c4.21,2.176,8.615,3.982,13.092,5.37c4.478-1.388,8.882-3.194,13.092-5.37c18.178-9.394,31.917-24.972,37.692-42.737
					c2.323-7.144,4.24-17.626,0.181-26.987c-2.564-5.915-7.675-10.585-14.392-13.152c-6.435-2.459-13.621-2.645-19.713-0.512
					c-6.232,2.182-11.775,6.685-16.476,13.383c-0.176,0.25-0.593,0.25-0.768,0c-4.701-6.698-10.245-11.2-16.476-13.383
					C235.519,136.084,232.471,135.594,229.372,135.594z"/>
			</g>
			<path style="fill:#B01A1F;" d="M216.597,194.169c1.343,1.079,2.757,2.066,4.238,2.925c1.499,0.87,3.089,1.632,4.769,2.076
				c2.146,0.568,4.411,0.764,6.624,0.61c4.248-0.295,8.234-1.986,11.763-4.302c7.405-4.86,12.749-12.023,19.057-18.104
				c7.024-6.771,16.095-12.977,26.304-12.267c2.394,0.166,4.726,0.619,6.897,1.677c2.117,1.032,4.053,2.58,5.384,4.535
				c0.573,0.841,1.002,1.724,1.325,2.634c1.606-6.831,1.792-14.201-1.016-20.679c-5.022-11.585-20.007-16.704-31.553-12.661
				c-6.249,2.188-11.295,6.775-15.194,12.33c-3.899-5.555-8.946-10.142-15.194-12.33c-11.546-4.043-26.532,1.076-31.553,12.661
				c-3.39,7.821-2.418,16.944,0.151,24.848C210.461,183.856,213.192,189.237,216.597,194.169z"/>
			<path style="fill:#FFFFFF;" d="M230.716,144.348c-0.422-0.774-1.08-1.401-1.898-1.738c-1.714-0.707-3.731-0.241-5.399,0.374
				c-0.309,0.114-0.615,0.239-0.919,0.37c-0.008,0.004-0.015,0.007-0.023,0.011c-1.521,0.806-2.895,1.91-4.004,3.219
				c-1.234,1.457-2.156,3.233-2.437,5.135c-0.135,0.917-0.119,1.896,0.253,2.759c0.397,0.918,1.184,1.539,2.108,1.883
				c2.13,0.795,4.54-0.149,6.362-1.204c1.62-0.939,3.05-2.179,4.224-3.638c1.069-1.328,2.001-2.906,2.196-4.612
				C231.28,146.025,231.144,145.132,230.716,144.348z"/>
			<path style="fill:#FFFFFF;" d="M213.487,158.458c-0.396-0.195-0.845-0.261-1.277-0.163c-0.904,0.205-1.594,0.977-2.098,1.708
				c-0.093,0.135-0.182,0.275-0.269,0.416c-0.002,0.004-0.004,0.007-0.006,0.011c-0.389,0.767-0.633,1.615-0.708,2.469
				c-0.085,0.951,0.05,1.942,0.484,2.801c0.209,0.414,0.497,0.809,0.898,1.054c0.427,0.261,0.927,0.287,1.404,0.162
				c1.099-0.289,1.812-1.369,2.253-2.325c0.392-0.85,0.618-1.769,0.678-2.703c0.054-0.851-0.02-1.764-0.432-2.517
				C214.201,158.981,213.888,158.655,213.487,158.458z"/>
		</g>
	</g>
</g>
</svg>
